<?xml version="1.0" encoding="UTF-8" standalone="no"?>
<!-- Created with Inkscape (http://www.inkscape.org/) -->

<svg
   id="svg5"
   version="1.1"
   viewBox="0 0 15.291667 15.29167"
   height="15.29167mm"
   width="15.291667mm"
   sodipodi:docname="Zeichnung.svg"
   inkscape:version="1.1 (c68e22c387, 2021-05-23)"
   inkscape:export-filename="/home/juergen/Android/Apps/Zeichnung.png"
   inkscape:export-xdpi="1199.9963"
   inkscape:export-ydpi="1199.9963"
   xmlns:inkscape="http://www.inkscape.org/namespaces/inkscape"
   xmlns:sodipodi="http://sodipodi.sourceforge.net/DTD/sodipodi-0.dtd"
   xmlns="http://www.w3.org/2000/svg"
   xmlns:svg="http://www.w3.org/2000/svg">
  <sodipodi:namedview
     id="namedview7"
     pagecolor="#ffffff"
     bordercolor="#666666"
     borderopacity="1.0"
     inkscape:pageshadow="2"
     inkscape:pageopacity="0.0"
     inkscape:pagecheckerboard="0"
     inkscape:document-units="mm"
     showgrid="false"
     inkscape:zoom="10.562636"
     inkscape:cx="14.248338"
     inkscape:cy="35.739186"
     inkscape:window-width="1366"
     inkscape:window-height="699"
     inkscape:window-x="0"
     inkscape:window-y="32"
     inkscape:window-maximized="1"
     inkscape:current-layer="layer1"
     fit-margin-top="5"
     fit-margin-left="5"
     fit-margin-bottom="5"
     fit-margin-right="5" />
  <defs
     id="defs2" />
  <g
     inkscape:label="Ebene 1"
     inkscape:groupmode="layer"
     id="layer1"
     transform="translate(-89.275918,-139.72058)">
    <g
       id="g23199"
       transform="translate(0.308877,0.46658)"
       style="opacity:0.2">
      <path
         style="opacity:1;fill:#000000;fill-opacity:1;stroke:none;stroke-width:1px;stroke-opacity:1"
         d="m 99.9849,147.317 c 0,1.463 -1.2824,2.65 -2.8647,2.65 -1.5823,10e-4 -2.8657,-1.185 -2.867,-2.648 -0.0012,-1.464 1.2801,-2.651 2.8624,-2.653 1.5823,-0.002 2.8668,1.183 2.8693,2.646 l -2.8658,0.004 z"
         id="path22799" />
      <path
         style="opacity:1;fill:#000000;fill-opacity:1;stroke:none;stroke-width:1px;stroke-opacity:1"
         d="m 99.9849,147.317 c 0,1.463 -1.2824,2.65 -2.8647,2.65 -1.5823,10e-4 -2.8657,-1.185 -2.867,-2.648 -0.0012,-1.464 1.2801,-2.651 2.8624,-2.653 1.5823,-0.002 2.8668,1.183 2.8693,2.646 l -2.8658,0.004 z"
         id="path22801" />
      <path
         style="opacity:1;fill:#000000;fill-opacity:1;stroke:none;stroke-width:1px;stroke-opacity:1"
         d="m 99.9849,147.317 c 0,1.463 -1.2824,2.65 -2.8647,2.65 -1.5823,10e-4 -2.8657,-1.185 -2.867,-2.648 -0.0012,-1.464 1.2801,-2.651 2.8624,-2.653 1.5823,-0.002 2.8668,1.183 2.8693,2.646 l -2.8658,0.004 z"
         id="path22803" />
      <path
         style="opacity:1;fill:#000000;fill-opacity:1;stroke:none;stroke-width:1px;stroke-opacity:1"
         d="m 99.9849,147.317 c 0,1.463 -1.2824,2.65 -2.8647,2.65 -1.5823,10e-4 -2.8657,-1.185 -2.867,-2.648 -0.0012,-1.464 1.2801,-2.651 2.8624,-2.653 1.5823,-0.002 2.8668,1.183 2.8693,2.646 l -2.8658,0.004 z"
         id="path22805" />
      <path
         style="opacity:1;fill:#000000;fill-opacity:1;stroke:none;stroke-width:1px;stroke-opacity:1"
         d="m 99.9849,147.317 c 0,1.463 -1.2824,2.65 -2.8647,2.65 -1.5823,10e-4 -2.8657,-1.185 -2.867,-2.648 -0.0012,-1.464 1.2801,-2.651 2.8624,-2.653 1.5823,-0.002 2.8668,1.183 2.8693,2.646 l -2.8658,0.004 z"
         id="path22807" />
      <path
         style="opacity:1;fill:#000000;fill-opacity:1;stroke:none;stroke-width:1px;stroke-opacity:1"
         d="m 99.9849,147.317 c 0,1.463 -1.2824,2.65 -2.8647,2.65 -1.5823,10e-4 -2.8657,-1.185 -2.867,-2.648 -0.0012,-1.464 1.2801,-2.651 2.8624,-2.653 1.5824,-0.002 2.8668,1.183 2.8693,2.646 l -2.8658,0.004 z"
         id="path22809" />
      <path
         style="opacity:1;fill:#000000;fill-opacity:1;stroke:none;stroke-width:1px;stroke-opacity:1"
         d="m 99.9849,147.317 c 0,1.463 -1.2824,2.65 -2.8647,2.65 -1.5823,10e-4 -2.8657,-1.185 -2.867,-2.648 -0.0012,-1.464 1.2801,-2.651 2.8624,-2.653 1.5824,-0.002 2.8668,1.183 2.8693,2.646 l -2.8658,0.004 z"
         id="path22811" />
      <path
         style="opacity:1;fill:#000000;fill-opacity:1;stroke:none;stroke-width:1px;stroke-opacity:1"
         d="m 99.9849,147.317 c 0,1.463 -1.2824,2.65 -2.8647,2.65 -1.5823,10e-4 -2.8657,-1.185 -2.867,-2.648 -0.0012,-1.464 1.2801,-2.651 2.8625,-2.653 1.5823,-0.002 2.8667,1.183 2.8692,2.646 l -2.8658,0.004 z"
         id="path22813" />
      <path
         style="opacity:1;fill:#000000;fill-opacity:1;stroke:none;stroke-width:1px;stroke-opacity:1"
         d="m 99.9849,147.317 c 0,1.463 -1.2823,2.65 -2.8647,2.65 -1.5823,10e-4 -2.8657,-1.185 -2.8669,-2.648 -0.0013,-1.464 1.2801,-2.651 2.8624,-2.653 1.5823,-0.002 2.8667,1.183 2.8692,2.646 l -2.8658,0.004 z"
         id="path22815" />
      <path
         style="opacity:1;fill:#000000;fill-opacity:1;stroke:none;stroke-width:1px;stroke-opacity:1"
         d="m 99.985,147.317 c 0,1.463 -1.2824,2.65 -2.8647,2.65 -1.5823,10e-4 -2.8658,-1.185 -2.867,-2.648 -0.0013,-1.464 1.2801,-2.651 2.8624,-2.653 1.5823,-0.002 2.8667,1.183 2.8693,2.646 l -2.8659,0.004 z"
         id="path22817" />
      <path
         style="opacity:1;fill:#000000;fill-opacity:1;stroke:none;stroke-width:1px;stroke-opacity:1"
         d="m 99.985,147.317 c 0,1.463 -1.2824,2.65 -2.8647,2.65 -1.5823,10e-4 -2.8657,-1.185 -2.867,-2.648 -0.0012,-1.464 1.2801,-2.651 2.8624,-2.653 1.5823,-0.002 2.8668,1.183 2.8693,2.646 l -2.8658,0.004 z"
         id="path22819" />
      <path
         style="opacity:1;fill:#000000;fill-opacity:1;stroke:none;stroke-width:1px;stroke-opacity:1"
         d="m 99.985,147.317 c 0,1.463 -1.2823,2.65 -2.8647,2.65 -1.5823,10e-4 -2.8657,-1.185 -2.8669,-2.648 -0.0013,-1.464 1.2801,-2.651 2.8624,-2.653 1.5823,-0.002 2.8667,1.183 2.8692,2.646 l -2.8658,0.004 z"
         id="path22821" />
      <path
         style="opacity:1;fill:#000000;fill-opacity:1;stroke:none;stroke-width:1px;stroke-opacity:1"
         d="m 99.9851,147.317 c 0,1.463 -1.2824,2.65 -2.8647,2.65 -1.5823,10e-4 -2.8657,-1.185 -2.867,-2.648 -0.0012,-1.464 1.2801,-2.651 2.8624,-2.653 1.5823,-0.002 2.8668,1.183 2.8693,2.646 l -2.8658,0.004 z"
         id="path22823" />
      <path
         style="opacity:1;fill:#000000;fill-opacity:1;stroke:none;stroke-width:1px;stroke-opacity:1"
         d="m 99.9852,147.317 c 0,1.463 -1.2824,2.65 -2.8647,2.651 -1.5823,0 -2.8658,-1.186 -2.867,-2.649 -0.0013,-1.464 1.2801,-2.651 2.8624,-2.653 1.5823,-0.002 2.8667,1.183 2.8693,2.647 l -2.8659,0.004 z"
         id="path22825" />
      <path
         style="opacity:1;fill:#000000;fill-opacity:1;stroke:none;stroke-width:1px;stroke-opacity:1"
         d="m 99.9853,147.317 c 0,1.463 -1.2824,2.65 -2.8647,2.651 -1.5824,0 -2.8658,-1.185 -2.867,-2.649 -0.0013,-1.464 1.2801,-2.651 2.8624,-2.653 1.5823,-0.002 2.8667,1.183 2.8693,2.647 l -2.8659,0.004 z"
         id="path22827" />
      <path
         style="opacity:1;fill:#000000;fill-opacity:1;stroke:none;stroke-width:1px;stroke-opacity:1"
         d="m 99.9854,147.317 c 0,1.464 -1.2824,2.65 -2.8647,2.651 -1.5823,0 -2.8658,-1.185 -2.867,-2.649 -0.0013,-1.463 1.2801,-2.651 2.8624,-2.653 1.5823,-0.002 2.8667,1.183 2.8693,2.647 l -2.8659,0.004 z"
         id="path22829" />
      <path
         style="opacity:1;fill:#000000;fill-opacity:1;stroke:none;stroke-width:1px;stroke-opacity:1"
         d="m 99.9855,147.317 c 0,1.464 -1.2824,2.65 -2.8647,2.651 -1.5823,0 -2.8657,-1.185 -2.867,-2.649 -0.0012,-1.463 1.2801,-2.651 2.8624,-2.653 1.5823,-0.001 2.8668,1.183 2.8693,2.647 l -2.8658,0.004 z"
         id="path22831" />
      <path
         style="opacity:1;fill:#000000;fill-opacity:1;stroke:none;stroke-width:1px;stroke-opacity:1"
         d="m 99.9857,147.317 c 0,1.464 -1.2824,2.65 -2.8647,2.651 -1.5824,0.001 -2.8658,-1.185 -2.867,-2.649 -0.0013,-1.463 1.2801,-2.651 2.8624,-2.652 1.5823,-0.002 2.8667,1.182 2.8693,2.646 l -2.8659,0.004 z"
         id="path22833" />
      <path
         style="opacity:1;fill:#000000;fill-opacity:1;stroke:none;stroke-width:1px;stroke-opacity:1"
         d="m 99.9858,147.317 c 0,1.464 -1.2823,2.651 -2.8647,2.651 -1.5823,0.001 -2.8657,-1.185 -2.8669,-2.648 -0.0013,-1.464 1.2801,-2.652 2.8624,-2.653 1.5823,-0.002 2.8667,1.183 2.8692,2.646 l -2.8658,0.004 z"
         id="path22835" />
      <path
         style="opacity:1;fill:#000000;fill-opacity:1;stroke:none;stroke-width:1px;stroke-opacity:1"
         d="m 99.9861,147.318 c 0,1.463 -1.2824,2.65 -2.8647,2.65 -1.5823,0.001 -2.8658,-1.185 -2.867,-2.648 -0.0013,-1.464 1.2801,-2.651 2.8624,-2.653 1.5823,-0.002 2.8667,1.183 2.8693,2.646 l -2.8659,0.004 z"
         id="path22837" />
      <path
         style="opacity:1;fill:#000000;fill-opacity:1;stroke:none;stroke-width:1px;stroke-opacity:1"
         d="m 99.9863,147.318 c 0,1.463 -1.2824,2.65 -2.8647,2.651 -1.5823,0 -2.8657,-1.185 -2.867,-2.649 -0.0012,-1.464 1.2801,-2.651 2.8625,-2.653 1.5823,-0.002 2.8667,1.183 2.8692,2.647 l -2.8658,0.004 z"
         id="path22839" />
      <path
         style="opacity:1;fill:#000000;fill-opacity:1;stroke:none;stroke-width:1px;stroke-opacity:1"
         d="m 99.9866,147.318 c 0,1.464 -1.2824,2.65 -2.8647,2.651 -1.5823,0.001 -2.8657,-1.185 -2.867,-2.649 -0.0012,-1.463 1.2801,-2.651 2.8625,-2.653 1.5823,-0.001 2.8667,1.183 2.8692,2.647 l -2.8658,0.004 z"
         id="path22841" />
      <path
         style="opacity:1;fill:#000000;fill-opacity:1;stroke:none;stroke-width:1px;stroke-opacity:1"
         d="m 99.987,147.319 c 0,1.463 -1.2824,2.65 -2.8647,2.65 -1.5823,0.001 -2.8658,-1.185 -2.867,-2.648 -0.0013,-1.464 1.2801,-2.651 2.8624,-2.653 1.5823,-0.002 2.8667,1.183 2.8693,2.646 l -2.8659,0.004 z"
         id="path22843" />
      <path
         style="opacity:1;fill:#000000;fill-opacity:1;stroke:none;stroke-width:1px;stroke-opacity:1"
         d="m 99.9874,147.319 c 0,1.464 -1.2824,2.65 -2.8647,2.651 -1.5824,0 -2.8658,-1.185 -2.867,-2.649 -0.0013,-1.463 1.2801,-2.651 2.8624,-2.653 1.5823,-0.002 2.8667,1.183 2.8693,2.647 l -2.8659,0.004 z"
         id="path22845" />
      <path
         style="opacity:1;fill:#000000;fill-opacity:1;stroke:none;stroke-width:1px;stroke-opacity:1"
         d="m 99.9878,147.319 c 0,1.464 -1.2824,2.651 -2.8647,2.651 -1.5823,0.001 -2.8657,-1.185 -2.867,-2.648 -0.0012,-1.464 1.2801,-2.652 2.8624,-2.653 1.5824,-0.002 2.8668,1.183 2.8693,2.646 l -2.8658,0.004 z"
         id="path22847" />
      <path
         style="opacity:1;fill:#000000;fill-opacity:1;stroke:none;stroke-width:1px;stroke-opacity:1"
         d="m 99.9883,147.32 c 0,1.463 -1.2824,2.65 -2.8647,2.651 -1.5823,0 -2.8657,-1.185 -2.867,-2.649 -0.0012,-1.464 1.2801,-2.651 2.8625,-2.653 1.5823,-0.002 2.8667,1.183 2.8692,2.647 l -2.8658,0.004 z"
         id="path22849" />
      <path
         style="opacity:1;fill:#000000;fill-opacity:1;stroke:none;stroke-width:1px;stroke-opacity:1"
         d="m 99.9889,147.32 c 0,1.464 -1.2824,2.651 -2.8647,2.651 -1.5823,0.001 -2.8657,-1.185 -2.867,-2.648 -0.0012,-1.464 1.2801,-2.651 2.8624,-2.653 1.5823,-0.002 2.8668,1.183 2.8693,2.646 l -2.8658,0.004 z"
         id="path22851" />
      <path
         style="opacity:1;fill:#000000;fill-opacity:1;stroke:none;stroke-width:1px;stroke-opacity:1"
         d="m 99.9895,147.321 c 0,1.464 -1.2823,2.65 -2.8647,2.651 -1.5823,0 -2.8657,-1.185 -2.8669,-2.649 -0.0013,-1.463 1.2801,-2.651 2.8624,-2.653 1.5823,-10e-4 2.8667,1.183 2.8692,2.647 l -2.8658,0.004 z"
         id="path22853" />
      <path
         style="opacity:1;fill:#000000;fill-opacity:1;stroke:none;stroke-width:1px;stroke-opacity:1"
         d="m 99.9903,147.322 c 0,1.463 -1.2824,2.65 -2.8647,2.651 -1.5824,0 -2.8658,-1.185 -2.867,-2.649 -0.0013,-1.464 1.2801,-2.651 2.8624,-2.653 1.5823,-0.002 2.8667,1.183 2.8693,2.647 l -2.8659,0.004 z"
         id="path22855" />
      <path
         style="opacity:1;fill:#000000;fill-opacity:1;stroke:none;stroke-width:1px;stroke-opacity:1"
         d="m 99.9911,147.323 c 0,1.463 -1.2824,2.65 -2.8647,2.65 -1.5824,10e-4 -2.8658,-1.185 -2.867,-2.648 -0.0013,-1.464 1.2801,-2.651 2.8624,-2.653 1.5823,-0.002 2.8667,1.183 2.8692,2.646 l -2.8658,0.004 z"
         id="path22857" />
      <path
         style="opacity:1;fill:#000000;fill-opacity:1;stroke:none;stroke-width:1px;stroke-opacity:1"
         d="m 99.9919,147.324 c 0,1.463 -1.2823,2.65 -2.8647,2.65 -1.5823,0.001 -2.8657,-1.185 -2.8669,-2.648 -0.0013,-1.464 1.2801,-2.651 2.8624,-2.653 1.5823,-0.002 2.8667,1.183 2.8692,2.646 l -2.8658,0.004 z"
         id="path22859" />
      <path
         style="opacity:1;fill:#000000;fill-opacity:1;stroke:none;stroke-width:1px;stroke-opacity:1"
         d="m 99.9929,147.325 c 0,1.463 -1.2824,2.65 -2.8647,2.65 -1.5823,0.001 -2.8657,-1.185 -2.867,-2.648 -0.0012,-1.464 1.2801,-2.651 2.8624,-2.653 1.5824,-0.002 2.8668,1.183 2.8693,2.646 l -2.8658,0.004 z"
         id="path22861" />
      <path
         style="opacity:1;fill:#000000;fill-opacity:1;stroke:none;stroke-width:1px;stroke-opacity:1"
         d="m 99.994,147.326 c 0,1.463 -1.2824,2.65 -2.8647,2.65 -1.5823,0.001 -2.8657,-1.185 -2.867,-2.648 -0.0012,-1.464 1.2801,-2.651 2.8624,-2.653 1.5823,-0.002 2.8668,1.183 2.8693,2.646 l -2.8658,0.004 z"
         id="path22863" />
      <path
         style="opacity:1;fill:#000000;fill-opacity:1;stroke:none;stroke-width:1px;stroke-opacity:1"
         d="m 99.9952,147.327 c 0,1.463 -1.2824,2.65 -2.8647,2.651 -1.5823,0 -2.8657,-1.186 -2.867,-2.649 -0.0013,-1.464 1.2801,-2.651 2.8624,-2.653 1.5823,-0.002 2.8668,1.183 2.8693,2.647 l -2.8659,0.004 z"
         id="path22865" />
      <path
         style="opacity:1;fill:#000000;fill-opacity:1;stroke:none;stroke-width:1px;stroke-opacity:1"
         d="m 99.9965,147.328 c 0,1.464 -1.2824,2.65 -2.8647,2.651 -1.5823,0 -2.8657,-1.185 -2.867,-2.649 -0.0013,-1.463 1.2801,-2.651 2.8624,-2.653 1.5823,-0.001 2.8667,1.183 2.8693,2.647 l -2.8659,0.004 z"
         id="path22867" />
      <path
         style="opacity:1;fill:#000000;fill-opacity:1;stroke:none;stroke-width:1px;stroke-opacity:1"
         d="m 99.9979,147.329 c 0,1.464 -1.2824,2.651 -2.8647,2.651 -1.5823,0.001 -2.8657,-1.185 -2.867,-2.648 -0.0012,-1.464 1.2801,-2.651 2.8624,-2.653 1.5823,-0.002 2.8668,1.183 2.8693,2.646 l -2.8658,0.004 z"
         id="path22869" />
      <path
         style="opacity:1;fill:#000000;fill-opacity:1;stroke:none;stroke-width:1px;stroke-opacity:1"
         d="m 99.9994,147.331 c 0,1.464 -1.2823,2.65 -2.8647,2.651 -1.5823,0 -2.8657,-1.185 -2.8669,-2.649 -0.0013,-1.463 1.2801,-2.651 2.8624,-2.653 1.5823,-0.001 2.8667,1.183 2.8692,2.647 l -2.8658,0.004 z"
         id="path22871" />
      <path
         style="opacity:1;fill:#000000;fill-opacity:1;stroke:none;stroke-width:1px;stroke-opacity:1"
         d="m 100.001,147.333 c 0,1.463 -1.2823,2.65 -2.8646,2.65 -1.5823,0.001 -2.8657,-1.185 -2.867,-2.648 -0.0012,-1.464 1.2801,-2.651 2.8625,-2.653 1.5823,-0.002 2.8667,1.183 2.8691,2.646 l -2.8657,0.004 z"
         id="path22873" />
      <path
         style="opacity:1;fill:#000000;fill-opacity:1;stroke:none;stroke-width:1px;stroke-opacity:1"
         d="m 100.003,147.335 c 0,1.463 -1.2824,2.65 -2.8648,2.65 -1.5823,10e-4 -2.8657,-1.185 -2.8669,-2.648 -0.0013,-1.464 1.2801,-2.651 2.8624,-2.653 1.5823,-0.002 2.8663,1.183 2.8693,2.646 l -2.8659,0.004 z"
         id="path22875" />
      <path
         style="opacity:1;fill:#000000;fill-opacity:1;stroke:none;stroke-width:1px;stroke-opacity:1"
         d="m 100.005,147.337 c 0,1.463 -1.2825,2.65 -2.8648,2.65 -1.5823,0.001 -2.8657,-1.185 -2.867,-2.648 -0.0012,-1.464 1.2801,-2.651 2.8624,-2.653 1.5824,-0.002 2.8664,1.183 2.8694,2.646 l -2.8659,0.004 z"
         id="path22877" />
      <path
         style="opacity:1;fill:#000000;fill-opacity:1;stroke:none;stroke-width:1px;stroke-opacity:1"
         d="m 100.007,147.339 c 0,1.463 -1.2823,2.65 -2.8646,2.65 -1.5824,0.001 -2.8658,-1.185 -2.867,-2.648 -0.0013,-1.464 1.2801,-2.651 2.8624,-2.653 1.5823,-0.002 2.8672,1.183 2.8692,2.646 l -2.8658,0.004 z"
         id="path22879" />
      <path
         style="opacity:1;fill:#000000;fill-opacity:1;stroke:none;stroke-width:1px;stroke-opacity:1"
         d="m 100.009,147.341 c 0,1.463 -1.282,2.65 -2.8643,2.651 -1.5824,0 -2.8658,-1.185 -2.867,-2.649 -0.0013,-1.463 1.2801,-2.651 2.8624,-2.653 1.5823,-0.002 2.8669,1.183 2.8689,2.647 l -2.8655,0.004 z"
         id="path22881" />
      <path
         style="opacity:1;fill:#000000;fill-opacity:1;stroke:none;stroke-width:1px;stroke-opacity:1"
         d="m 100.012,147.343 c 0,1.464 -1.2826,2.651 -2.8649,2.651 -1.5823,0.001 -2.8657,-1.185 -2.867,-2.648 -0.0012,-1.464 1.2801,-2.652 2.8625,-2.653 1.5823,-0.002 2.8664,1.183 2.8694,2.646 l -2.866,0.004 z"
         id="path22883" />
      <path
         style="opacity:1;fill:#000000;fill-opacity:1;stroke:none;stroke-width:1px;stroke-opacity:1"
         d="m 100.014,147.346 c 0,1.464 -1.2819,2.65 -2.8642,2.651 -1.5823,0 -2.8657,-1.185 -2.867,-2.649 -0.0013,-1.463 1.2801,-2.651 2.8624,-2.653 1.5823,-0.001 2.8668,1.183 2.8688,2.647 l -2.8654,0.004 z"
         id="path22885" />
      <path
         style="opacity:1;fill:#000000;fill-opacity:1;stroke:none;stroke-width:1px;stroke-opacity:1"
         d="m 100.017,147.349 c 0,1.463 -1.282,2.65 -2.8644,2.651 -1.5823,0 -2.8657,-1.185 -2.8669,-2.649 -0.0013,-1.463 1.2801,-2.651 2.8624,-2.653 1.5823,-0.002 2.8669,1.183 2.8689,2.647 l -2.8655,0.004 z"
         id="path22887" />
      <path
         style="opacity:1;fill:#000000;fill-opacity:1;stroke:none;stroke-width:1px;stroke-opacity:1"
         d="m 100.02,147.352 c 0,1.464 -1.282,2.65 -2.8643,2.651 -1.5823,0 -2.8657,-1.185 -2.867,-2.649 -0.0012,-1.463 1.2801,-2.651 2.8624,-2.653 1.5823,-0.001 2.8669,1.183 2.8689,2.647 l -2.8654,0.004 z"
         id="path22889" />
      <path
         style="opacity:1;fill:#000000;fill-opacity:1;stroke:none;stroke-width:1px;stroke-opacity:1"
         d="m 100.024,147.355 c 0,1.464 -1.2827,2.65 -2.865,2.651 -1.5823,0.001 -2.8657,-1.185 -2.867,-2.649 -0.0013,-1.463 1.2801,-2.651 2.8624,-2.652 1.5823,-0.002 2.8666,1.183 2.8696,2.646 l -2.8662,0.004 z"
         id="path22891" />
      <path
         style="opacity:1;fill:#000000;fill-opacity:1;stroke:none;stroke-width:1px;stroke-opacity:1"
         d="m 100.027,147.359 c 0,1.463 -1.2822,2.65 -2.8645,2.651 -1.5823,0 -2.8657,-1.186 -2.867,-2.649 -0.0013,-1.464 1.2801,-2.651 2.8624,-2.653 1.5823,-0.002 2.8671,1.183 2.8691,2.647 l -2.8657,0.004 z"
         id="path22893" />
      <path
         style="opacity:1;fill:#000000;fill-opacity:1;stroke:none;stroke-width:1px;stroke-opacity:1"
         d="m 100.031,147.363 c 0,1.463 -1.2825,2.65 -2.8648,2.65 -1.5823,0.001 -2.8657,-1.185 -2.867,-2.648 -0.0012,-1.464 1.2801,-2.651 2.8624,-2.653 1.5823,-0.002 2.8664,1.183 2.8694,2.646 l -2.8659,0.004 z"
         id="path22895" />
      <path
         style="opacity:1;fill:#000000;fill-opacity:1;stroke:none;stroke-width:1px;stroke-opacity:1"
         d="m 100.035,147.366 c 0,1.464 -1.2825,2.651 -2.8648,2.651 -1.5823,0.001 -2.8657,-1.185 -2.867,-2.648 -0.0013,-1.464 1.2801,-2.652 2.8624,-2.653 1.5823,-0.002 2.8664,1.183 2.8694,2.646 l -2.866,0.004 z"
         id="path22897" />
      <path
         style="opacity:1;fill:#000000;fill-opacity:1;stroke:none;stroke-width:1px;stroke-opacity:1"
         d="m 100.039,147.371 c 0,1.463 -1.2823,2.65 -2.8646,2.65 -1.5823,0.001 -2.8657,-1.185 -2.867,-2.648 -0.0012,-1.464 1.2801,-2.651 2.8624,-2.653 1.5823,-0.002 2.8672,1.183 2.8692,2.646 l -2.8657,0.004 z"
         id="path22899" />
      <path
         style="opacity:1;fill:#000000;fill-opacity:1;stroke:none;stroke-width:1px;stroke-opacity:1"
         d="m 100.044,147.375 c 0,1.464 -1.2828,2.65 -2.8651,2.651 -1.5823,10e-4 -2.8657,-1.185 -2.867,-2.649 -0.0012,-1.463 1.2801,-2.651 2.8624,-2.653 1.5823,-10e-4 2.8667,1.183 2.8697,2.647 l -2.8662,0.004 z"
         id="path22901" />
      <path
         style="opacity:1;fill:#000000;fill-opacity:1;stroke:none;stroke-width:1px;stroke-opacity:1"
         d="m 100.048,147.38 c 0,1.464 -1.282,2.65 -2.8643,2.651 -1.5824,0 -2.8658,-1.185 -2.867,-2.649 -0.0013,-1.463 1.2801,-2.651 2.8624,-2.653 1.5823,-0.002 2.8669,1.183 2.8689,2.647 l -2.8655,0.004 z"
         id="path22903" />
      <path
         style="opacity:1;fill:#000000;fill-opacity:1;stroke:none;stroke-width:1px;stroke-opacity:1"
         d="m 100.053,147.385 c 0,1.464 -1.282,2.65 -2.8643,2.651 -1.5823,0 -2.8657,-1.185 -2.867,-2.649 -0.0012,-1.463 1.2801,-2.651 2.8624,-2.653 1.5824,-0.001 2.8669,1.183 2.8689,2.647 l -2.8654,0.004 z"
         id="path22905" />
      <path
         style="opacity:1;fill:#000000;fill-opacity:1;stroke:none;stroke-width:1px;stroke-opacity:1"
         d="m 100.059,147.39 c 0,1.464 -1.2826,2.651 -2.8649,2.651 -1.5823,0.001 -2.8658,-1.185 -2.867,-2.649 -0.0013,-1.463 1.2801,-2.651 2.8624,-2.652 1.5823,-0.002 2.8665,1.183 2.8695,2.646 l -2.8661,0.004 z"
         id="path22907" />
      <path
         style="opacity:1;fill:#000000;fill-opacity:1;stroke:none;stroke-width:1px;stroke-opacity:1"
         d="m 100.064,147.396 c 0,1.464 -1.282,2.65 -2.8643,2.651 -1.5823,0 -2.8657,-1.185 -2.8669,-2.649 -0.0013,-1.463 1.2801,-2.651 2.8624,-2.653 1.5823,-0.001 2.8668,1.183 2.8688,2.647 l -2.8654,0.004 z"
         id="path22909" />
      <path
         style="opacity:1;fill:#000000;fill-opacity:1;stroke:none;stroke-width:1px;stroke-opacity:1"
         d="m 100.07,147.402 c 0,1.464 -1.282,2.65 -2.8643,2.651 -1.5823,0 -2.8657,-1.185 -2.867,-2.649 -0.0012,-1.463 1.2801,-2.651 2.8625,-2.653 1.5823,-0.001 2.8668,1.183 2.8688,2.647 l -2.8654,0.004 z"
         id="path22911" />
      <path
         style="opacity:1;fill:#000000;fill-opacity:1;stroke:none;stroke-width:1px;stroke-opacity:1"
         d="m 100.077,147.408 c 0,1.464 -1.2826,2.65 -2.865,2.651 -1.5823,0.001 -2.8657,-1.185 -2.8669,-2.649 -0.0013,-1.463 1.2801,-2.651 2.8624,-2.652 1.5823,-0.002 2.8665,1.183 2.8695,2.646 l -2.8661,0.004 z"
         id="path22913" />
      <path
         style="opacity:1;fill:#000000;fill-opacity:1;stroke:none;stroke-width:1px;stroke-opacity:1"
         d="m 100.083,147.415 c 0,1.464 -1.282,2.65 -2.8643,2.651 -1.5823,0 -2.8657,-1.185 -2.867,-2.649 -0.0012,-1.463 1.2801,-2.651 2.8624,-2.653 1.5824,-0.001 2.8669,1.183 2.8689,2.647 l -2.8654,0.004 z"
         id="path22915" />
      <path
         style="opacity:1;fill:#000000;fill-opacity:1;stroke:none;stroke-width:1px;stroke-opacity:1"
         d="m 100.09,147.422 c 0,1.464 -1.2819,2.65 -2.8643,2.651 -1.5823,0 -2.8657,-1.185 -2.8669,-2.649 -0.0013,-1.463 1.2801,-2.651 2.8624,-2.653 1.5823,-10e-4 2.8668,1.183 2.8688,2.647 l -2.8654,0.004 z"
         id="path22917" />
      <path
         style="opacity:1;fill:#000000;fill-opacity:1;stroke:none;stroke-width:1px;stroke-opacity:1"
         d="m 100.098,147.429 c 0,1.464 -1.2825,2.651 -2.8649,2.651 -1.5823,10e-4 -2.8657,-1.185 -2.8669,-2.648 -0.0013,-1.464 1.2801,-2.652 2.8624,-2.653 1.5823,-0.002 2.8664,1.183 2.8694,2.646 l -2.866,0.004 z"
         id="path22919" />
      <path
         style="opacity:1;fill:#000000;fill-opacity:1;stroke:none;stroke-width:1px;stroke-opacity:1"
         d="m 100.106,147.437 c 0,1.464 -1.2828,2.65 -2.8651,2.651 -1.5823,0.001 -2.8657,-1.185 -2.867,-2.649 -0.0012,-1.463 1.2801,-2.651 2.8625,-2.653 1.5823,-0.001 2.8666,1.183 2.8696,2.647 l -2.8662,0.004 z"
         id="path22921" />
      <path
         style="opacity:1;fill:#000000;fill-opacity:1;stroke:none;stroke-width:1px;stroke-opacity:1"
         d="m 100.114,147.445 c 0,1.464 -1.2826,2.651 -2.8649,2.651 -1.5823,0.001 -2.8657,-1.185 -2.867,-2.648 -0.0012,-1.464 1.2801,-2.652 2.8624,-2.653 1.5824,-0.002 2.8665,1.183 2.8695,2.646 l -2.866,0.004 z"
         id="path22923" />
      <path
         style="opacity:1;fill:#000000;fill-opacity:1;stroke:none;stroke-width:1px;stroke-opacity:1"
         d="m 100.122,147.454 c 0,1.464 -1.282,2.65 -2.8643,2.651 -1.5823,0 -2.8657,-1.185 -2.867,-2.649 -0.0012,-1.463 1.2801,-2.651 2.8624,-2.653 1.5823,-0.001 2.8669,1.183 2.8689,2.647 l -2.8654,0.004 z"
         id="path22925" />
      <path
         style="opacity:1;fill:#000000;fill-opacity:1;stroke:none;stroke-width:1px;stroke-opacity:1"
         d="m 100.131,147.463 c 0,1.464 -1.282,2.65 -2.8643,2.651 -1.5823,0 -2.8657,-1.185 -2.867,-2.649 -0.0012,-1.463 1.2801,-2.651 2.8625,-2.653 1.5823,-0.001 2.8668,1.183 2.8688,2.647 l -2.8654,0.004 z"
         id="path22927" />
      <path
         style="opacity:1;fill:#000000;fill-opacity:1;stroke:none;stroke-width:1px;stroke-opacity:1"
         d="m 100.141,147.472 c 0,1.464 -1.2825,2.651 -2.8648,2.651 -1.5823,0.001 -2.8657,-1.185 -2.867,-2.648 -0.0012,-1.464 1.2801,-2.651 2.8624,-2.653 1.5823,-0.002 2.8664,1.183 2.8694,2.646 l -2.8659,0.004 z"
         id="path22929" />
      <path
         style="opacity:1;fill:#000000;fill-opacity:1;stroke:none;stroke-width:1px;stroke-opacity:1"
         d="m 100.151,147.482 c 0,1.464 -1.2826,2.651 -2.8649,2.651 -1.5823,10e-4 -2.8657,-1.185 -2.867,-2.648 -0.0012,-1.464 1.2801,-2.652 2.8624,-2.653 1.5824,-0.002 2.8665,1.183 2.8695,2.646 l -2.866,0.004 z"
         id="path22931" />
      <path
         style="opacity:1;fill:#000000;fill-opacity:1;stroke:none;stroke-width:1px;stroke-opacity:1"
         d="m 100.161,147.493 c 0,1.463 -1.2822,2.65 -2.8645,2.651 -1.5823,0 -2.8657,-1.186 -2.867,-2.649 -0.0012,-1.464 1.2801,-2.651 2.8624,-2.653 1.5824,-0.002 2.8671,1.183 2.8691,2.647 l -2.8656,0.004 z"
         id="path22933" />
      <path
         style="opacity:1;fill:#000000;fill-opacity:1;stroke:none;stroke-width:1px;stroke-opacity:1"
         d="m 100.172,147.504 c 0,1.463 -1.2823,2.65 -2.8646,2.65 -1.5823,0.001 -2.8657,-1.185 -2.867,-2.648 -0.0013,-1.464 1.2801,-2.651 2.8624,-2.653 1.5823,-0.002 2.8672,1.183 2.8692,2.646 l -2.8658,0.004 z"
         id="path22935" />
      <path
         style="opacity:1;fill:#000000;fill-opacity:1;stroke:none;stroke-width:1px;stroke-opacity:1"
         d="m 100.183,147.515 c 0,1.464 -1.2819,2.65 -2.8642,2.651 -1.5824,0 -2.8658,-1.185 -2.867,-2.649 -0.0013,-1.463 1.2801,-2.651 2.8624,-2.653 1.5823,-0.001 2.8668,1.183 2.8688,2.647 l -2.8654,0.004 z"
         id="path22937" />
      <path
         style="opacity:1;fill:#000000;fill-opacity:1;stroke:none;stroke-width:1px;stroke-opacity:1"
         d="m 100.195,147.527 c 0,1.463 -1.282,2.65 -2.8644,2.651 -1.5823,0 -2.8657,-1.185 -2.8669,-2.649 -0.0013,-1.463 1.2801,-2.651 2.8624,-2.653 1.5823,-0.002 2.8669,1.183 2.8689,2.647 l -2.8655,0.004 z"
         id="path22939" />
      <path
         style="opacity:1;fill:#000000;fill-opacity:1;stroke:none;stroke-width:1px;stroke-opacity:1"
         d="m 100.208,147.539 c 0,1.464 -1.2826,2.651 -2.8649,2.651 -1.5823,0.001 -2.8658,-1.185 -2.867,-2.649 -0.0013,-1.463 1.2801,-2.651 2.8624,-2.652 1.5823,-0.002 2.8665,1.183 2.8695,2.646 l -2.8661,0.004 z"
         id="path22941" />
      <path
         style="opacity:1;fill:#000000;fill-opacity:1;stroke:none;stroke-width:1px;stroke-opacity:1"
         d="m 100.221,147.552 c 0,1.464 -1.2827,2.65 -2.865,2.651 -1.5823,0.001 -2.8657,-1.185 -2.8669,-2.649 -0.0013,-1.463 1.2801,-2.651 2.8624,-2.652 1.5823,-0.002 2.8665,1.183 2.8695,2.646 l -2.8661,0.004 z"
         id="path22943" />
      <path
         style="opacity:1;fill:#000000;fill-opacity:1;stroke:none;stroke-width:1px;stroke-opacity:1"
         d="m 100.234,147.566 c 0,1.463 -1.2821,2.65 -2.8644,2.651 -1.5823,0 -2.8658,-1.185 -2.867,-2.649 -0.0013,-1.464 1.2801,-2.651 2.8624,-2.653 1.5823,-0.002 2.867,1.183 2.869,2.647 l -2.8656,0.004 z"
         id="path22945" />
      <path
         style="opacity:1;fill:#000000;fill-opacity:1;stroke:none;stroke-width:1px;stroke-opacity:1"
         d="m 100.248,147.58 c 0,1.464 -1.282,2.65 -2.8643,2.651 -1.5823,0 -2.8657,-1.185 -2.867,-2.649 -0.0013,-1.463 1.2801,-2.651 2.8624,-2.653 1.5823,-0.002 2.8669,1.183 2.8689,2.647 l -2.8655,0.004 z"
         id="path22947" />
      <path
         style="opacity:1;fill:#000000;fill-opacity:1;stroke:none;stroke-width:1px;stroke-opacity:1"
         d="m 100.263,147.595 c 0,1.463 -1.2823,2.65 -2.8646,2.65 -1.5823,0.001 -2.8657,-1.185 -2.867,-2.648 -0.0013,-1.464 1.2801,-2.651 2.8624,-2.653 1.5823,-0.002 2.8672,1.183 2.8692,2.646 l -2.8658,0.004 z"
         id="path22949" />
      <path
         style="opacity:1;fill:#000000;fill-opacity:1;stroke:none;stroke-width:1px;stroke-opacity:1"
         d="m 100.278,147.61 c 0,1.464 -1.282,2.65 -2.8643,2.651 -1.5823,0 -2.8657,-1.185 -2.867,-2.649 -0.0012,-1.463 1.2801,-2.651 2.8624,-2.653 1.5823,-0.001 2.8669,1.183 2.8689,2.647 l -2.8654,0.004 z"
         id="path22951" />
      <path
         style="opacity:1;fill:#000000;fill-opacity:1;stroke:none;stroke-width:1px;stroke-opacity:1"
         d="m 100.294,147.626 c 0,1.463 -1.282,2.65 -2.8644,2.651 -1.5823,0 -2.8657,-1.185 -2.8669,-2.649 -0.0013,-1.463 1.2801,-2.651 2.8624,-2.653 1.5823,-0.002 2.8669,1.183 2.8689,2.647 l -2.8655,0.004 z"
         id="path22953" />
      <path
         style="opacity:1;fill:#000000;fill-opacity:1;stroke:none;stroke-width:1px;stroke-opacity:1"
         d="m 100.311,147.643 c 0,1.463 -1.2825,2.65 -2.8648,2.65 -1.5823,0.001 -2.8657,-1.185 -2.867,-2.648 -0.0012,-1.464 1.2801,-2.651 2.8625,-2.653 1.5823,-0.002 2.8663,1.183 2.8693,2.646 l -2.8659,0.004 z"
         id="path22955" />
      <path
         style="opacity:1;fill:#000000;fill-opacity:1;stroke:none;stroke-width:1px;stroke-opacity:1"
         d="m 100.328,147.66 c 0,1.463 -1.2822,2.65 -2.8645,2.651 -1.5823,0 -2.8657,-1.186 -2.867,-2.649 -0.0013,-1.464 1.2801,-2.651 2.8624,-2.653 1.5823,-0.002 2.8671,1.183 2.8691,2.647 l -2.8657,0.004 z"
         id="path22957" />
      <path
         style="opacity:1;fill:#000000;fill-opacity:1;stroke:none;stroke-width:1px;stroke-opacity:1"
         d="m 100.346,147.678 c 0,1.463 -1.2823,2.65 -2.8646,2.65 -1.5823,0.001 -2.8657,-1.185 -2.867,-2.648 -0.0012,-1.464 1.2801,-2.651 2.8625,-2.653 1.5823,-0.002 2.8671,1.183 2.8691,2.646 l -2.8657,0.004 z"
         id="path22959" />
      <path
         style="opacity:1;fill:#000000;fill-opacity:1;stroke:none;stroke-width:1px;stroke-opacity:1"
         d="m 100.365,147.696 c 0,1.464 -1.2826,2.651 -2.8649,2.651 -1.5824,0.001 -2.8658,-1.185 -2.867,-2.649 -0.0013,-1.463 1.2801,-2.651 2.8624,-2.652 1.5823,-0.002 2.8665,1.183 2.8695,2.646 l -2.8661,0.004 z"
         id="path22961" />
      <path
         style="opacity:1;fill:#000000;fill-opacity:1;stroke:none;stroke-width:1px;stroke-opacity:1"
         d="m 100.384,147.716 c 0,1.463 -1.2823,2.65 -2.8646,2.65 -1.5823,10e-4 -2.8657,-1.185 -2.867,-2.648 -0.0012,-1.464 1.2801,-2.651 2.8624,-2.653 1.5824,-0.002 2.8672,1.183 2.8692,2.646 l -2.8657,0.004 z"
         id="path22963" />
      <path
         style="opacity:1;fill:#000000;fill-opacity:1;stroke:none;stroke-width:1px;stroke-opacity:1"
         d="m 100.404,147.736 c 0,1.463 -1.2822,2.65 -2.8645,2.651 -1.5823,0 -2.8657,-1.186 -2.867,-2.649 -0.0012,-1.464 1.2801,-2.651 2.8624,-2.653 1.5823,-0.002 2.8671,1.183 2.8691,2.647 l -2.8656,0.004 z"
         id="path22965" />
      <path
         style="opacity:1;fill:#000000;fill-opacity:1;stroke:none;stroke-width:1px;stroke-opacity:1"
         d="m 100.425,147.757 c 0,1.463 -1.2823,2.65 -2.8646,2.65 -1.5824,10e-4 -2.8658,-1.185 -2.867,-2.648 -0.0013,-1.464 1.2801,-2.651 2.8624,-2.653 1.5823,-0.002 2.8672,1.183 2.8692,2.646 l -2.8658,0.004 z"
         id="path22967" />
      <path
         style="opacity:1;fill:#000000;fill-opacity:1;stroke:none;stroke-width:1px;stroke-opacity:1"
         d="m 100.447,147.778 c 0,1.464 -1.2827,2.65 -2.865,2.651 -1.5823,0.001 -2.8657,-1.185 -2.867,-2.649 -0.0013,-1.463 1.2801,-2.651 2.8624,-2.652 1.5823,-0.002 2.8666,1.183 2.8696,2.646 l -2.8662,0.004 z"
         id="path22969" />
      <path
         style="opacity:1;fill:#000000;fill-opacity:1;stroke:none;stroke-width:1px;stroke-opacity:1"
         d="m 100.469,147.801 c 0,1.463 -1.2823,2.65 -2.8646,2.65 -1.5823,0.001 -2.8657,-1.185 -2.867,-2.648 -0.0013,-1.464 1.2801,-2.651 2.8624,-2.653 1.5823,-0.002 2.8672,1.183 2.8692,2.646 l -2.8658,0.004 z"
         id="path22971" />
      <path
         style="opacity:1;fill:#000000;fill-opacity:1;stroke:none;stroke-width:1px;stroke-opacity:1"
         d="m 100.492,147.824 c 0,1.463 -1.2821,2.65 -2.8644,2.651 -1.5823,0 -2.8657,-1.185 -2.867,-2.649 -0.0012,-1.464 1.2801,-2.651 2.8624,-2.653 1.5824,-0.002 2.867,1.183 2.869,2.647 l -2.8655,0.004 z"
         id="path22973" />
      <path
         style="opacity:1;fill:#000000;fill-opacity:1;stroke:none;stroke-width:1px;stroke-opacity:1"
         d="m 100.516,147.848 c 0,1.464 -1.282,2.65 -2.8643,2.651 -1.5823,0 -2.8657,-1.185 -2.867,-2.649 -0.0013,-1.463 1.2801,-2.651 2.8624,-2.653 1.5823,-0.002 2.8669,1.183 2.8689,2.647 l -2.8655,0.004 z"
         id="path22975" />
      <path
         style="opacity:1;fill:#000000;fill-opacity:1;stroke:none;stroke-width:1px;stroke-opacity:1"
         d="m 100.541,147.873 c 0,1.463 -1.2821,2.65 -2.8644,2.651 -1.5823,0 -2.8657,-1.185 -2.867,-2.649 -0.0013,-1.464 1.2801,-2.651 2.8624,-2.653 1.5823,-0.002 2.867,1.183 2.869,2.647 l -2.8655,0.004 z"
         id="path22977" />
      <path
         style="opacity:1;fill:#000000;fill-opacity:1;stroke:none;stroke-width:1px;stroke-opacity:1"
         d="m 100.567,147.899 c 0,1.463 -1.2823,2.65 -2.8646,2.65 -1.5823,0.001 -2.8657,-1.185 -2.867,-2.648 -0.0013,-1.464 1.2801,-2.651 2.8624,-2.653 1.5823,-0.002 2.8672,1.183 2.8692,2.646 l -2.8658,0.004 z"
         id="path22979" />
      <path
         style="opacity:1;fill:#000000;fill-opacity:1;stroke:none;stroke-width:1px;stroke-opacity:1"
         d="m 100.594,147.925 c 0,1.464 -1.2826,2.651 -2.8649,2.651 -1.5824,0.001 -2.8658,-1.185 -2.867,-2.649 -0.0013,-1.463 1.2801,-2.651 2.8624,-2.652 1.5823,-0.002 2.8665,1.183 2.8695,2.646 l -2.8661,0.004 z"
         id="path22981" />
      <path
         style="opacity:1;fill:#000000;fill-opacity:1;stroke:none;stroke-width:1px;stroke-opacity:1"
         d="m 100.621,147.953 c 0,1.464 -1.282,2.65 -2.8643,2.651 -1.5824,0 -2.8658,-1.185 -2.867,-2.649 -0.0013,-1.463 1.2801,-2.651 2.8624,-2.653 1.5823,-0.002 2.8669,1.183 2.8689,2.647 l -2.8655,0.004 z"
         id="path22983" />
      <path
         style="opacity:1;fill:#000000;fill-opacity:1;stroke:none;stroke-width:1px;stroke-opacity:1"
         d="m 100.65,147.981 c 0,1.464 -1.2825,2.651 -2.8648,2.651 -1.5823,0.001 -2.8657,-1.185 -2.867,-2.648 -0.0013,-1.464 1.2801,-2.651 2.8624,-2.653 1.5823,-0.002 2.8664,1.183 2.8694,2.646 l -2.866,0.004 z"
         id="path22985" />
      <path
         style="opacity:1;fill:#000000;fill-opacity:1;stroke:none;stroke-width:1px;stroke-opacity:1"
         d="m 100.679,148.011 c 0,1.464 -1.282,2.65 -2.8643,2.651 -1.5823,0 -2.8658,-1.185 -2.867,-2.649 -0.0013,-1.463 1.2801,-2.651 2.8624,-2.653 1.5823,-0.002 2.8669,1.183 2.8689,2.647 l -2.8655,0.004 z"
         id="path22987" />
      <path
         style="opacity:1;fill:#000000;fill-opacity:1;stroke:none;stroke-width:1px;stroke-opacity:1"
         d="m 100.71,148.041 c 0,1.464 -1.2826,2.651 -2.8649,2.651 -1.5823,0.001 -2.8657,-1.185 -2.8669,-2.648 -0.0013,-1.464 1.2801,-2.652 2.8624,-2.653 1.5823,-0.002 2.8664,1.183 2.8694,2.646 l -2.866,0.004 z"
         id="path22989" />
      <path
         style="opacity:1;fill:#000000;fill-opacity:1;stroke:none;stroke-width:1px;stroke-opacity:1"
         d="m 100.741,148.073 c 0,1.463 -1.2821,2.65 -2.8644,2.651 -1.5823,0 -2.8657,-1.185 -2.867,-2.649 -0.0012,-1.464 1.2801,-2.651 2.8624,-2.653 1.5823,-0.002 2.867,1.183 2.869,2.647 l -2.8655,0.004 z"
         id="path22991" />
      <path
         style="opacity:1;fill:#000000;fill-opacity:1;stroke:none;stroke-width:1px;stroke-opacity:1"
         d="m 100.774,148.105 c 0,1.464 -1.2826,2.651 -2.8649,2.651 -1.5823,0.001 -2.8657,-1.185 -2.867,-2.649 -0.0013,-1.463 1.2801,-2.651 2.8624,-2.652 1.5823,-0.002 2.8665,1.183 2.8695,2.646 l -2.8661,0.004 z"
         id="path22993" />
      <path
         style="opacity:1;fill:#000000;fill-opacity:1;stroke:none;stroke-width:1px;stroke-opacity:1"
         d="m 100.807,148.139 c 0,1.463 -1.2821,2.65 -2.8644,2.651 -1.5823,0 -2.8657,-1.185 -2.867,-2.649 -0.0012,-1.464 1.2801,-2.651 2.8624,-2.653 1.5824,-0.002 2.867,1.183 2.869,2.647 l -2.8655,0.004 z"
         id="path22995" />
      <path
         style="opacity:1;fill:#000000;fill-opacity:1;stroke:none;stroke-width:1px;stroke-opacity:1"
         d="m 100.842,148.174 c 0,1.463 -1.2825,2.65 -2.8648,2.65 -1.5823,10e-4 -2.8657,-1.185 -2.867,-2.648 -0.0012,-1.464 1.2801,-2.651 2.8624,-2.653 1.5824,-0.002 2.8664,1.183 2.8694,2.646 l -2.8659,0.004 z"
         id="path22997" />
      <path
         style="opacity:1;fill:#000000;fill-opacity:1;stroke:none;stroke-width:1px;stroke-opacity:1"
         d="m 100.878,148.209 c 0,1.464 -1.2828,2.65 -2.8651,2.651 -1.5823,10e-4 -2.8657,-1.185 -2.867,-2.649 -0.0012,-1.463 1.2801,-2.651 2.8624,-2.653 1.5823,-0.001 2.8667,1.183 2.8697,2.647 l -2.8662,0.004 z"
         id="path22999" />
      <path
         style="opacity:1;fill:#000000;fill-opacity:1;stroke:none;stroke-width:1px;stroke-opacity:1"
         d="m 100.914,148.246 c 0,1.464 -1.282,2.65 -2.8643,2.651 -1.5823,0 -2.8657,-1.185 -2.867,-2.649 -0.0012,-1.463 1.2801,-2.651 2.8624,-2.653 1.5823,-0.001 2.8669,1.183 2.8689,2.647 l -2.8654,0.004 z"
         id="path23001" />
      <path
         style="opacity:1;fill:#000000;fill-opacity:1;stroke:none;stroke-width:1px;stroke-opacity:1"
         d="m 100.952,148.284 c 0,1.463 -1.2821,2.65 -2.8644,2.651 -1.5823,0 -2.8657,-1.185 -2.867,-2.649 -0.0012,-1.464 1.2801,-2.651 2.8625,-2.653 1.5823,-0.002 2.8669,1.183 2.8689,2.647 l -2.8655,0.004 z"
         id="path23003" />
      <path
         style="opacity:1;fill:#000000;fill-opacity:1;stroke:none;stroke-width:1px;stroke-opacity:1"
         d="m 100.991,148.323 c 0,1.464 -1.282,2.65 -2.8643,2.651 -1.5823,0 -2.8657,-1.185 -2.867,-2.649 -0.0012,-1.463 1.2801,-2.651 2.8625,-2.653 1.5823,-0.001 2.8668,1.183 2.8688,2.647 l -2.8654,0.004 z"
         id="path23005" />
      <path
         style="opacity:1;fill:#000000;fill-opacity:1;stroke:none;stroke-width:1px;stroke-opacity:1"
         d="m 101.032,148.363 c 0,1.464 -1.2827,2.65 -2.865,2.651 -1.5823,10e-4 -2.8657,-1.185 -2.867,-2.649 -0.0012,-1.463 1.2801,-2.651 2.8624,-2.652 1.5823,-0.002 2.8666,1.183 2.8696,2.646 l -2.8661,0.004 z"
         id="path23007" />
      <path
         style="opacity:1;fill:#000000;fill-opacity:1;stroke:none;stroke-width:1px;stroke-opacity:1"
         d="m 101.073,148.405 c 0,1.463 -1.2822,2.65 -2.8645,2.651 -1.5823,0 -2.8657,-1.186 -2.867,-2.649 -0.0013,-1.464 1.2801,-2.651 2.8624,-2.653 1.5823,-0.002 2.8671,1.183 2.8691,2.647 l -2.8657,0.004 z"
         id="path23009" />
      <path
         style="opacity:1;fill:#000000;fill-opacity:1;stroke:none;stroke-width:1px;stroke-opacity:1"
         d="m 101.116,148.447 c 0,1.464 -1.2825,2.651 -2.8648,2.651 -1.5823,10e-4 -2.8657,-1.185 -2.867,-2.648 -0.0012,-1.464 1.2801,-2.651 2.8624,-2.653 1.5823,-0.002 2.8664,1.183 2.8694,2.646 l -2.8659,0.004 z"
         id="path23011" />
      <path
         style="opacity:1;fill:#000000;fill-opacity:1;stroke:none;stroke-width:1px;stroke-opacity:1"
         d="m 101.16,148.491 c 0,1.464 -1.2825,2.651 -2.8648,2.651 -1.5824,0.001 -2.8658,-1.185 -2.867,-2.648 -0.0013,-1.464 1.2801,-2.652 2.8624,-2.653 1.5823,-0.002 2.8664,1.183 2.8694,2.646 l -2.866,0.004 z"
         id="path23013" />
      <path
         style="opacity:1;fill:#000000;fill-opacity:1;stroke:none;stroke-width:1px;stroke-opacity:1"
         d="m 101.205,148.537 c 0,1.463 -1.2823,2.65 -2.8646,2.65 -1.5823,10e-4 -2.8657,-1.185 -2.867,-2.648 -0.0012,-1.464 1.2801,-2.651 2.8624,-2.653 1.5824,-0.002 2.8672,1.183 2.8692,2.646 l -2.8657,0.004 z"
         id="path23015" />
      <path
         style="opacity:1;fill:#000000;fill-opacity:1;stroke:none;stroke-width:1px;stroke-opacity:1"
         d="m 101.252,148.583 c 0,1.464 -1.2827,2.65 -2.865,2.651 -1.5823,0.001 -2.8658,-1.185 -2.867,-2.649 -0.0013,-1.463 1.2801,-2.651 2.8624,-2.652 1.5823,-0.002 2.8666,1.182 2.8696,2.646 l -2.8662,0.004 z"
         id="path23017" />
      <path
         style="opacity:1;fill:#000000;fill-opacity:1;stroke:none;stroke-width:1px;stroke-opacity:1"
         d="m 101.3,148.631 c 0,1.464 -1.283,2.65 -2.8651,2.651 -1.5824,0 -2.8658,-1.185 -2.867,-2.649 -0.0013,-1.463 1.2801,-2.651 2.8624,-2.653 1.5827,-10e-4 2.8667,1.183 2.8697,2.647 l -2.8663,0.004 z"
         id="path23019" />
      <path
         style="opacity:1;fill:#000000;fill-opacity:1;stroke:none;stroke-width:1px;stroke-opacity:1"
         d="m 101.349,148.68 c 0,1.464 -1.283,2.651 -2.8649,2.651 -1.5823,0.001 -2.8657,-1.185 -2.867,-2.648 -0.0012,-1.464 1.2801,-2.652 2.8624,-2.653 1.5825,-0.002 2.8665,1.183 2.8695,2.646 l -2.866,0.004 z"
         id="path23021" />
      <path
         style="opacity:1;fill:#000000;fill-opacity:1;stroke:none;stroke-width:1px;stroke-opacity:1"
         d="m 101.399,148.731 c 0,1.464 -1.282,2.65 -2.8643,2.651 -1.5823,0 -2.8657,-1.185 -2.867,-2.649 -0.0012,-1.463 1.2801,-2.651 2.8624,-2.653 1.5819,-0.001 2.8669,1.183 2.8689,2.647 l -2.8654,0.004 z"
         id="path23023" />
      <path
         style="opacity:1;fill:#000000;fill-opacity:1;stroke:none;stroke-width:1px;stroke-opacity:1"
         d="m 101.451,148.783 c 0,1.464 -1.282,2.65 -2.8642,2.651 -1.5824,0 -2.8658,-1.185 -2.867,-2.649 -0.0013,-1.463 1.2801,-2.651 2.8624,-2.653 1.5818,-0.001 2.8668,1.183 2.8688,2.647 l -2.8654,0.004 z"
         id="path23025" />
      <path
         style="opacity:1;fill:#000000;fill-opacity:1;stroke:none;stroke-width:1px;stroke-opacity:1"
         d="m 101.505,148.837 c 0,1.463 -1.282,2.65 -2.8648,2.65 -1.5823,0.001 -2.8657,-1.185 -2.867,-2.648 -0.0012,-1.464 1.2801,-2.651 2.8624,-2.653 1.5824,-0.002 2.8664,1.183 2.8694,2.646 l -2.8659,0.004 z"
         id="path23027" />
      <path
         style="opacity:1;fill:#000000;fill-opacity:1;stroke:none;stroke-width:1px;stroke-opacity:1"
         d="m 101.56,148.891 c 0,1.464 -1.283,2.651 -2.8649,2.651 -1.5823,0.001 -2.8657,-1.185 -2.8669,-2.648 -0.0013,-1.464 1.2801,-2.652 2.8624,-2.653 1.5824,-0.002 2.8664,1.183 2.8694,2.646 l -2.866,0.004 z"
         id="path23029" />
      <path
         style="opacity:1;fill:#000000;fill-opacity:1;stroke:none;stroke-width:1px;stroke-opacity:1"
         d="m 101.616,148.948 c 0,1.463 -1.282,2.65 -2.8644,2.651 -1.5824,0 -2.8658,-1.185 -2.867,-2.649 -0.0013,-1.464 1.2801,-2.651 2.8624,-2.653 1.582,-0.002 2.867,1.183 2.869,2.647 l -2.8656,0.004 z"
         id="path23031" />
      <path
         style="opacity:1;fill:#000000;fill-opacity:1;stroke:none;stroke-width:1px;stroke-opacity:1"
         d="m 101.674,149.006 c 0,1.463 -1.282,2.65 -2.8645,2.651 -1.5823,0 -2.8657,-1.186 -2.867,-2.649 -0.0013,-1.464 1.2801,-2.651 2.8624,-2.653 1.5821,-0.002 2.8671,1.183 2.8691,2.647 l -2.8657,0.004 z"
         id="path23033" />
      <path
         style="opacity:1;fill:#000000;fill-opacity:1;stroke:none;stroke-width:1px;stroke-opacity:1"
         d="m 101.734,149.065 c 0,1.464 -1.283,2.65 -2.865,2.651 -1.5824,0.001 -2.8658,-1.185 -2.867,-2.649 -0.0013,-1.463 1.2801,-2.651 2.8624,-2.652 1.5826,-0.002 2.8666,1.182 2.8696,2.646 l -2.8662,0.004 z"
         id="path23035" />
      <path
         style="opacity:1;fill:#000000;fill-opacity:1;stroke:none;stroke-width:1px;stroke-opacity:1"
         d="m 101.795,149.126 c 0,1.464 -1.283,2.65 -2.865,2.651 -1.5823,0.001 -2.8657,-1.185 -2.867,-2.649 -0.0012,-1.463 1.2801,-2.651 2.8624,-2.652 1.5826,-0.002 2.8666,1.183 2.8696,2.646 l -2.8661,0.004 z"
         id="path23037" />
      <path
         style="opacity:1;fill:#000000;fill-opacity:1;stroke:none;stroke-width:1px;stroke-opacity:1"
         d="m 101.857,149.189 c 0,1.463 -1.282,2.65 -2.8644,2.651 -1.5823,0 -2.8657,-1.185 -2.8669,-2.649 -0.0013,-1.463 1.2801,-2.651 2.8624,-2.653 1.5819,-0.002 2.8669,1.183 2.8689,2.647 l -2.8655,0.004 z"
         id="path23039" />
      <path
         style="opacity:1;fill:#000000;fill-opacity:1;stroke:none;stroke-width:1px;stroke-opacity:1"
         d="m 101.922,149.253 c 0,1.464 -1.283,2.65 -2.8651,2.651 -1.5823,0.001 -2.8657,-1.185 -2.867,-2.649 -0.0012,-1.463 1.2801,-2.651 2.8624,-2.653 1.5827,-0.001 2.8667,1.183 2.8697,2.647 l -2.8662,0.004 z"
         id="path23041" />
      <path
         style="opacity:1;fill:#000000;fill-opacity:1;stroke:none;stroke-width:1px;stroke-opacity:1"
         d="m 101.988,149.319 c 0,1.464 -1.283,2.65 -2.8652,2.651 -1.5823,0 -2.8657,-1.185 -2.867,-2.649 -0.0012,-1.463 1.2801,-2.651 2.8624,-2.653 1.5828,-0.001 2.8668,1.183 2.8698,2.647 l -2.8663,0.004 z"
         id="path23043" />
      <path
         style="opacity:1;fill:#000000;fill-opacity:1;stroke:none;stroke-width:1px;stroke-opacity:1"
         d="m 102.055,149.387 c 0,1.463 -1.282,2.65 -2.8646,2.65 -1.5823,0.001 -2.8657,-1.185 -2.867,-2.648 -0.0012,-1.464 1.2801,-2.651 2.8624,-2.653 1.5822,-0.002 2.8672,1.183 2.8692,2.646 l -2.8657,0.004 z"
         id="path23045" />
      <path
         style="opacity:1;fill:#000000;fill-opacity:1;stroke:none;stroke-width:1px;stroke-opacity:1"
         d="m 102.124,149.456 c 0,1.464 -1.282,2.65 -2.8643,2.651 -1.5823,0 -2.8657,-1.185 -2.867,-2.649 -0.0012,-1.463 1.2801,-2.651 2.8625,-2.653 1.5818,-0.001 2.8668,1.183 2.8688,2.647 l -2.8654,0.004 z"
         id="path23047" />
      <path
         style="opacity:1;fill:#000000;fill-opacity:1;stroke:none;stroke-width:1px;stroke-opacity:1"
         d="m 102.195,149.527 c 0,1.464 -1.282,2.65 -2.8642,2.651 -1.5823,0 -2.8657,-1.185 -2.867,-2.649 -0.0013,-1.463 1.2801,-2.651 2.8624,-2.653 1.5828,-0.001 2.8668,1.183 2.8688,2.647 l -2.8654,0.004 z"
         id="path23049" />
      <path
         style="opacity:1;fill:#000000;fill-opacity:1;stroke:none;stroke-width:1px;stroke-opacity:1"
         d="m 102.268,149.6 c 0,1.463 -1.282,2.65 -2.8644,2.651 -1.5823,0 -2.8657,-1.185 -2.867,-2.649 -0.0012,-1.464 1.2801,-2.651 2.8624,-2.653 1.582,-0.002 2.867,1.183 2.869,2.647 l -2.8655,0.004 z"
         id="path23051" />
      <path
         style="opacity:1;fill:#000000;fill-opacity:1;stroke:none;stroke-width:1px;stroke-opacity:1"
         d="m 102.343,149.675 c 0,1.463 -1.282,2.65 -2.8648,2.65 -1.5823,0.001 -2.8657,-1.185 -2.867,-2.648 -0.0012,-1.464 1.2801,-2.651 2.8625,-2.653 1.5823,-0.002 2.8663,1.183 2.8693,2.646 l -2.8659,0.004 z"
         id="path23053" />
      <path
         style="opacity:1;fill:#000000;fill-opacity:1;stroke:none;stroke-width:1px;stroke-opacity:1"
         d="m 102.419,149.751 c 0,1.464 -1.282,2.65 -2.8643,2.651 -1.5823,0 -2.8657,-1.185 -2.867,-2.649 -0.0013,-1.463 1.2801,-2.651 2.8624,-2.653 1.5819,-0.002 2.8669,1.183 2.8689,2.647 l -2.8655,0.004 z"
         id="path23055" />
      <path
         style="opacity:1;fill:#000000;fill-opacity:1;stroke:none;stroke-width:1px;stroke-opacity:1"
         d="m 102.498,149.829 c 0,1.464 -1.283,2.65 -2.865,2.651 -1.5823,0.001 -2.8657,-1.185 -2.867,-2.649 -0.0013,-1.463 1.2801,-2.651 2.8624,-2.652 1.5826,-0.002 2.8666,1.183 2.8696,2.646 l -2.8662,0.004 z"
         id="path23057" />
      <path
         style="opacity:1;fill:#000000;fill-opacity:1;stroke:none;stroke-width:1px;stroke-opacity:1"
         d="m 102.578,149.909 c 0,1.464 -1.283,2.651 -2.8648,2.651 -1.5823,0.001 -2.8657,-1.185 -2.867,-2.648 -0.0013,-1.464 1.2801,-2.651 2.8624,-2.653 1.5824,-0.002 2.8664,1.183 2.8694,2.646 l -2.866,0.004 z"
         id="path23059" />
      <path
         style="opacity:1;fill:#000000;fill-opacity:1;stroke:none;stroke-width:1px;stroke-opacity:1"
         d="m 102.66,149.992 c 0,1.463 -1.282,2.65 -2.8647,2.65 -1.5823,0.001 -2.8657,-1.185 -2.867,-2.648 -0.0012,-1.464 1.2801,-2.651 2.8624,-2.653 1.5823,-0.002 2.8663,1.183 2.8693,2.646 l -2.8658,0.004 z"
         id="path23061" />
      <path
         style="opacity:1;fill:#000000;fill-opacity:1;stroke:none;stroke-width:1px;stroke-opacity:1"
         d="m 102.744,150.076 c 0,1.463 -1.282,2.65 -2.8646,2.65 -1.5823,0.001 -2.8657,-1.185 -2.867,-2.648 -0.0013,-1.464 1.2801,-2.651 2.8624,-2.653 1.5822,-0.002 2.8672,1.183 2.8692,2.646 l -2.8658,0.004 z"
         id="path23063" />
      <path
         style="opacity:1;fill:#000000;fill-opacity:1;stroke:none;stroke-width:1px;stroke-opacity:1"
         d="m 102.83,150.162 c 0,1.463 -1.282,2.65 -2.8646,2.65 -1.5823,10e-4 -2.8657,-1.185 -2.867,-2.648 -0.0012,-1.464 1.2801,-2.651 2.8625,-2.653 1.5821,-0.002 2.8671,1.183 2.8691,2.646 l -2.8657,0.004 z"
         id="path23065" />
      <path
         style="opacity:1;fill:#000000;fill-opacity:1;stroke:none;stroke-width:1px;stroke-opacity:1"
         d="m 102.918,150.25 c 0,1.463 -1.282,2.65 -2.865,2.651 -1.5818,0 -2.8652,-1.186 -2.8665,-2.649 -0.0012,-1.464 1.2801,-2.651 2.8625,-2.653 1.582,-0.002 2.867,1.183 2.869,2.647 l -2.866,0.004 z"
         id="path23067" />
      <path
         style="opacity:1;fill:#000000;fill-opacity:1;stroke:none;stroke-width:1px;stroke-opacity:1"
         d="m 103.008,150.34 c 0,1.463 -1.282,2.65 -2.864,2.651 -1.5827,0 -2.8661,-1.185 -2.8674,-2.649 -0.0012,-1.464 1.2801,-2.651 2.8624,-2.653 1.582,-0.002 2.867,1.183 2.869,2.647 l -2.866,0.004 z"
         id="path23069" />
      <path
         style="opacity:1;fill:#000000;fill-opacity:1;stroke:none;stroke-width:1px;stroke-opacity:1"
         d="m 103.1,150.432 c 0,1.464 -1.282,2.65 -2.864,2.651 -1.5825,0 -2.8659,-1.185 -2.8672,-2.649 -0.0012,-1.463 1.2801,-2.651 2.8622,-2.653 1.583,-0.001 2.867,1.183 2.869,2.647 l -2.865,0.004 z"
         id="path23071" />
      <path
         style="opacity:1;fill:#000000;fill-opacity:1;stroke:none;stroke-width:1px;stroke-opacity:1"
         d="m 103.195,150.526 c 0,1.464 -1.283,2.651 -2.865,2.651 -1.5822,0.001 -2.8656,-1.185 -2.8669,-2.648 -0.0012,-1.464 1.2801,-2.652 2.8629,-2.653 1.582,-0.002 2.866,1.183 2.869,2.646 l -2.866,0.004 z"
         id="path23073" />
      <path
         style="opacity:1;fill:#000000;fill-opacity:1;stroke:none;stroke-width:1px;stroke-opacity:1"
         d="m 103.291,150.623 c 0,1.463 -1.282,2.65 -2.864,2.651 -1.5828,0 -2.8662,-1.185 -2.8674,-2.649 -0.0013,-1.464 1.2801,-2.651 2.8624,-2.653 1.582,-0.002 2.867,1.183 2.869,2.647 l -2.866,0.004 z"
         id="path23075" />
      <path
         style="opacity:1;fill:#000000;fill-opacity:1;stroke:none;stroke-width:1px;stroke-opacity:1"
         d="m 103.39,150.721 c 0,1.464 -1.283,2.651 -2.865,2.651 -1.5822,10e-4 -2.8656,-1.185 -2.8668,-2.648 -0.0013,-1.464 1.2801,-2.652 2.8628,-2.653 1.582,-0.002 2.866,1.183 2.869,2.646 l -2.866,0.004 z"
         id="path23077" />
      <path
         style="opacity:1;fill:#000000;fill-opacity:1;stroke:none;stroke-width:1px;stroke-opacity:1"
         d="m 103.491,150.822 c 0,1.464 -1.283,2.65 -2.865,2.651 -1.5823,10e-4 -2.8657,-1.185 -2.867,-2.649 -0.0013,-1.463 1.2801,-2.651 2.862,-2.652 1.583,-0.002 2.867,1.183 2.87,2.646 l -2.866,0.004 z"
         id="path23079" />
      <path
         style="opacity:1;fill:#000000;fill-opacity:1;stroke:none;stroke-width:1px;stroke-opacity:1"
         d="m 103.594,150.925 c 0,1.464 -1.283,2.651 -2.865,2.651 -1.5823,0.001 -2.8657,-1.185 -2.8669,-2.649 -0.0013,-1.463 1.2801,-2.651 2.8619,-2.652 1.583,-0.002 2.867,1.183 2.87,2.646 l -2.866,0.004 z"
         id="path23081" />
      <path
         style="opacity:1;fill:#000000;fill-opacity:1;stroke:none;stroke-width:1px;stroke-opacity:1"
         d="m 103.699,151.031 c 0,1.463 -1.282,2.65 -2.865,2.65 -1.5819,10e-4 -2.8653,-1.185 -2.8666,-2.648 -0.0012,-1.464 1.2801,-2.651 2.8626,-2.653 1.582,-0.002 2.867,1.183 2.869,2.646 l -2.866,0.004 z"
         id="path23083" />
      <path
         style="opacity:1;fill:#000000;fill-opacity:1;stroke:none;stroke-width:1px;stroke-opacity:1"
         d="m 103.807,151.138 c 0,1.464 -1.283,2.65 -2.865,2.651 -1.5823,0.001 -2.8657,-1.185 -2.8669,-2.649 -0.0013,-1.463 1.2801,-2.651 2.8619,-2.652 1.583,-0.002 2.867,1.183 2.87,2.646 l -2.866,0.004 z"
         id="path23085" />
      <path
         style="opacity:1;fill:#000000;fill-opacity:1;stroke:none;stroke-width:1px;stroke-opacity:1"
         d="m 103.917,151.248 c 0,1.464 -1.283,2.65 -2.865,2.651 -1.5823,0.001 -2.8657,-1.185 -2.8669,-2.649 -0.0013,-1.463 1.2801,-2.651 2.8619,-2.652 1.583,-0.002 2.867,1.183 2.87,2.646 l -2.866,0.004 z"
         id="path23087" />
      <path
         style="opacity:1;fill:#000000;fill-opacity:1;stroke:none;stroke-width:1px;stroke-opacity:1"
         d="m 104.029,151.361 c 0,1.463 -1.282,2.65 -2.865,2.65 -1.5819,0.001 -2.8653,-1.185 -2.8666,-2.648 -0.0012,-1.464 1.2801,-2.651 2.8626,-2.653 1.582,-0.002 2.867,1.183 2.869,2.646 l -2.866,0.004 z"
         id="path23089" />
      <path
         style="opacity:1;fill:#000000;fill-opacity:1;stroke:none;stroke-width:1px;stroke-opacity:1"
         d="m 104.144,151.475 c 0,1.464 -1.282,2.651 -2.865,2.651 -1.5821,0.001 -2.8655,-1.185 -2.8668,-2.648 -0.0012,-1.464 1.2801,-2.651 2.8628,-2.653 1.582,-0.002 2.866,1.183 2.869,2.646 l -2.866,0.004 z"
         id="path23091" />
      <path
         style="opacity:1;fill:#000000;fill-opacity:1;stroke:none;stroke-width:1px;stroke-opacity:1"
         d="m 104.261,151.593 c 0,1.463 -1.282,2.65 -2.865,2.65 -1.5819,0.001 -2.8653,-1.185 -2.8666,-2.648 -0.0012,-1.464 1.2801,-2.651 2.8626,-2.653 1.582,-0.002 2.867,1.183 2.869,2.646 l -2.866,0.004 z"
         id="path23093" />
      <path
         style="opacity:1;fill:#000000;fill-opacity:1;stroke:none;stroke-width:1px;stroke-opacity:1"
         d="m 104.381,151.712 c 0,1.464 -1.283,2.651 -2.865,2.651 -1.5822,0.001 -2.8656,-1.185 -2.8668,-2.648 -0.0013,-1.464 1.2801,-2.652 2.8628,-2.653 1.582,-0.002 2.866,1.183 2.869,2.646 l -2.866,0.004 z"
         id="path23095" />
      <path
         style="opacity:1;fill:#000000;fill-opacity:1;stroke:none;stroke-width:1px;stroke-opacity:1"
         d="m 104.503,151.835 c 0,1.463 -1.282,2.65 -2.865,2.65 -1.582,10e-4 -2.8654,-1.185 -2.8666,-2.648 -0.0013,-1.464 1.2796,-2.651 2.8626,-2.653 1.582,-0.002 2.867,1.183 2.869,2.646 l -2.866,0.004 z"
         id="path23097" />
      <path
         style="opacity:1;fill:#000000;fill-opacity:1;stroke:none;stroke-width:1px;stroke-opacity:1"
         d="m 104.628,151.959 c 0,1.464 -1.283,2.651 -2.865,2.651 -1.582,10e-4 -2.8656,-1.185 -2.8668,-2.648 -0.0013,-1.464 1.2798,-2.652 2.8628,-2.653 1.582,-0.002 2.866,1.183 2.869,2.646 l -2.866,0.004 z"
         id="path23099" />
      <path
         style="opacity:1;fill:#000000;fill-opacity:1;stroke:none;stroke-width:1px;stroke-opacity:1"
         d="m 104.755,152.087 c 0,1.463 -1.282,2.65 -2.864,2.651 -1.583,0 -2.8662,-1.186 -2.8675,-2.649 -0.0012,-1.464 1.2805,-2.651 2.8625,-2.653 1.582,-0.002 2.867,1.183 2.869,2.647 l -2.866,0.004 z"
         id="path23101" />
      <path
         style="opacity:1;fill:#000000;fill-opacity:1;stroke:none;stroke-width:1px;stroke-opacity:1"
         d="m 104.885,152.217 c 0,1.463 -1.282,2.65 -2.865,2.651 -1.582,0 -2.8652,-1.186 -2.8665,-2.649 -0.0012,-1.464 1.2805,-2.651 2.8625,-2.653 1.582,-0.002 2.867,1.183 2.869,2.647 l -2.866,0.004 z"
         id="path23103" />
      <path
         style="opacity:1;fill:#000000;fill-opacity:1;stroke:none;stroke-width:1px;stroke-opacity:1"
         d="m 105.018,152.349 c 0,1.464 -1.283,2.651 -2.865,2.651 -1.582,0.001 -2.8656,-1.185 -2.8668,-2.648 -0.0013,-1.464 1.2798,-2.652 2.8628,-2.653 1.582,-0.002 2.866,1.183 2.869,2.646 l -2.866,0.004 z"
         id="path23105" />
      <path
         style="opacity:1;fill:#000000;fill-opacity:1;stroke:none;stroke-width:1px;stroke-opacity:1"
         d="m 105.153,152.485 c 0,1.463 -1.282,2.65 -2.865,2.651 -1.582,0 -2.8652,-1.186 -2.8665,-2.649 -0.0012,-1.464 1.2805,-2.651 2.8625,-2.653 1.582,-0.002 2.867,1.183 2.869,2.647 l -2.866,0.004 z"
         id="path23107" />
      <path
         style="opacity:1;fill:#000000;fill-opacity:1;stroke:none;stroke-width:1px;stroke-opacity:1"
         d="m 105.291,152.623 c 0,1.463 -1.282,2.65 -2.864,2.651 -1.583,0 -2.8661,-1.185 -2.8674,-2.649 -0.0013,-1.464 1.2804,-2.651 2.8624,-2.653 1.582,-0.002 2.867,1.183 2.869,2.647 l -2.866,0.004 z"
         id="path23109" />
      <path
         style="opacity:1;fill:#000000;fill-opacity:1;stroke:none;stroke-width:1px;stroke-opacity:1"
         d="m 105.432,152.764 c 0,1.463 -1.282,2.65 -2.865,2.65 -1.582,0.001 -2.8653,-1.185 -2.8665,-2.648 -0.0013,-1.464 1.2805,-2.651 2.8625,-2.653 1.582,-0.002 2.867,1.183 2.869,2.647 l -2.866,0.004 z"
         id="path23111" />
      <path
         style="opacity:1;fill:#000000;fill-opacity:1;stroke:none;stroke-width:1px;stroke-opacity:1"
         d="m 105.576,152.907 c 0,1.464 -1.283,2.651 -2.865,2.651 -1.582,0.001 -2.8656,-1.185 -2.8669,-2.648 -0.0012,-1.464 1.2799,-2.652 2.8629,-2.653 1.582,-0.002 2.866,1.183 2.869,2.646 l -2.866,0.004 z"
         id="path23113" />
      <path
         style="opacity:1;fill:#000000;fill-opacity:1;stroke:none;stroke-width:1px;stroke-opacity:1"
         d="m 105.722,153.054 c 0,1.463 -1.282,2.65 -2.864,2.651 -1.583,0 -2.8661,-1.185 -2.8674,-2.649 -0.0012,-1.464 1.2804,-2.651 2.8624,-2.653 1.582,-0.002 2.867,1.183 2.869,2.647 l -2.866,0.004 z"
         id="path23115" />
      <path
         style="opacity:1;fill:#000000;fill-opacity:1;stroke:none;stroke-width:1px;stroke-opacity:1"
         d="m 105.872,153.203 c 0,1.464 -1.283,2.65 -2.865,2.651 -1.582,10e-4 -2.866,-1.185 -2.867,-2.649 -0.001,-1.463 1.28,-2.651 2.862,-2.652 1.583,-0.002 2.867,1.183 2.87,2.646 l -2.866,0.004 z"
         id="path23117" />
      <path
         style="opacity:1;fill:#000000;fill-opacity:1;stroke:none;stroke-width:1px;stroke-opacity:1"
         d="m 106.024,153.356 c 0,1.463 -1.282,2.65 -2.865,2.65 -1.582,0.001 -2.865,-1.185 -2.867,-2.648 -0.001,-1.464 1.28,-2.651 2.863,-2.653 1.582,-0.002 2.866,1.183 2.869,2.646 l -2.866,0.004 z"
         id="path23119" />
      <path
         style="opacity:1;fill:#000000;fill-opacity:1;stroke:none;stroke-width:1px;stroke-opacity:1"
         d="m 106.179,153.511 c 0,1.463 -1.282,2.65 -2.864,2.651 -1.583,0 -2.866,-1.185 -2.867,-2.649 -0.002,-1.464 1.28,-2.651 2.862,-2.653 1.582,-0.002 2.867,1.183 2.869,2.647 l -2.866,0.004 z"
         id="path23121" />
      <path
         style="opacity:1;fill:#000000;fill-opacity:1;stroke:none;stroke-width:1px;stroke-opacity:1"
         d="m 106.338,153.669 c 0,1.464 -1.283,2.65 -2.865,2.651 -1.582,0 -2.866,-1.185 -2.867,-2.649 -10e-4,-1.463 1.28,-2.651 2.862,-2.653 1.583,-0.001 2.867,1.183 2.87,2.647 l -2.866,0.004 z"
         id="path23123" />
      <path
         style="opacity:1;fill:#000000;fill-opacity:1;stroke:none;stroke-width:1px;stroke-opacity:1"
         d="m 106.499,153.83 c 0,1.464 -1.282,2.651 -2.865,2.651 -1.582,0.001 -2.866,-1.185 -2.867,-2.648 -10e-4,-1.464 1.28,-2.651 2.863,-2.653 1.582,-0.002 2.866,1.183 2.869,2.646 l -2.866,0.004 z"
         id="path23125" />
      <path
         style="opacity:1;fill:#000000;fill-opacity:1;stroke:none;stroke-width:1px;stroke-opacity:1"
         d="m 106.663,153.995 c 0,1.463 -1.282,2.65 -2.864,2.651 -1.583,0 -2.866,-1.185 -2.867,-2.649 -0.002,-1.464 1.28,-2.651 2.862,-2.653 1.582,-0.002 2.867,1.183 2.869,2.647 l -2.866,0.004 z"
         id="path23127" />
      <path
         style="opacity:1;fill:#000000;fill-opacity:1;stroke:none;stroke-width:1px;stroke-opacity:1"
         d="m 106.831,154.162 c 0,1.464 -1.283,2.651 -2.865,2.651 -1.582,0.001 -2.866,-1.185 -2.867,-2.648 -0.001,-1.464 1.28,-2.652 2.863,-2.653 1.582,-0.002 2.866,1.183 2.869,2.646 l -2.866,0.004 z"
         id="path23129" />
      <path
         style="opacity:1;fill:#000000;fill-opacity:1;stroke:none;stroke-width:1px;stroke-opacity:1"
         d="m 107.001,154.333 c 0,1.464 -1.282,2.65 -2.864,2.651 -1.583,0 -2.866,-1.185 -2.867,-2.649 -10e-4,-1.463 1.28,-2.651 2.862,-2.653 1.583,-10e-4 2.867,1.183 2.869,2.647 l -2.865,0.004 z"
         id="path23131" />
      <path
         style="opacity:1;fill:#000000;fill-opacity:1;stroke:none;stroke-width:1px;stroke-opacity:1"
         d="m 107.175,154.507 c 0,1.463 -1.282,2.65 -2.864,2.651 -1.583,0 -2.866,-1.185 -2.867,-2.649 -0.002,-1.463 1.28,-2.651 2.862,-2.653 1.582,-0.002 2.867,1.183 2.869,2.647 l -2.866,0.004 z"
         id="path23133" />
      <path
         style="opacity:1;fill:#000000;fill-opacity:1;stroke:none;stroke-width:1px;stroke-opacity:1"
         d="m 107.352,154.684 c 0,1.464 -1.282,2.65 -2.864,2.651 -1.583,0 -2.866,-1.185 -2.867,-2.649 -10e-4,-1.463 1.28,-2.651 2.862,-2.653 1.582,-10e-4 2.867,1.183 2.869,2.647 l -2.865,0.004 z"
         id="path23135" />
      <path
         style="opacity:1;fill:#000000;fill-opacity:1;stroke:none;stroke-width:1px;stroke-opacity:1"
         d="m 107.533,154.864 c 0,1.464 -1.283,2.651 -2.865,2.651 -1.582,0.001 -2.866,-1.185 -2.867,-2.648 -0.001,-1.464 1.28,-2.652 2.863,-2.653 1.582,-0.002 2.866,1.183 2.869,2.646 l -2.866,0.004 z"
         id="path23137" />
      <path
         style="opacity:1;fill:#000000;fill-opacity:1;stroke:none;stroke-width:1px;stroke-opacity:1"
         d="m 107.717,155.048 c 0,1.464 -1.283,2.65 -2.865,2.651 -1.582,0 -2.866,-1.185 -2.867,-2.649 -0.001,-1.463 1.28,-2.651 2.862,-2.653 1.583,-0.001 2.867,1.183 2.87,2.647 l -2.866,0.004 z"
         id="path23139" />
      <path
         style="opacity:1;fill:#000000;fill-opacity:1;stroke:none;stroke-width:1px;stroke-opacity:1"
         d="m 107.904,155.235 c 0,1.464 -1.283,2.65 -2.865,2.651 -1.582,0.001 -2.866,-1.185 -2.867,-2.649 -10e-4,-1.463 1.28,-2.651 2.862,-2.653 1.583,-0.001 2.867,1.183 2.87,2.647 l -2.866,0.004 z"
         id="path23141" />
      <path
         style="opacity:1;fill:#000000;fill-opacity:1;stroke:none;stroke-width:1px;stroke-opacity:1"
         d="m 108.094,155.426 c 0,1.463 -1.282,2.65 -2.865,2.65 -1.582,0.001 -2.865,-1.185 -2.867,-2.648 -10e-4,-1.464 1.28,-2.651 2.863,-2.653 1.582,-0.002 2.867,1.183 2.869,2.646 l -2.866,0.004 z"
         id="path23143" />
      <path
         style="opacity:1;fill:#000000;fill-opacity:1;stroke:none;stroke-width:1px;stroke-opacity:1"
         d="m 108.288,155.62 c 0,1.463 -1.282,2.65 -2.865,2.65 -1.582,10e-4 -2.865,-1.185 -2.867,-2.648 -10e-4,-1.464 1.28,-2.651 2.863,-2.653 1.582,-0.002 2.866,1.183 2.869,2.646 l -2.866,0.004 z"
         id="path23145" />
      <path
         style="opacity:1;fill:#000000;fill-opacity:1;stroke:none;stroke-width:1px;stroke-opacity:1"
         d="m 108.485,155.817 c 0,1.464 -1.282,2.65 -2.864,2.651 -1.583,0 -2.866,-1.185 -2.867,-2.649 -0.002,-1.463 1.28,-2.651 2.862,-2.653 1.582,-0.001 2.867,1.183 2.869,2.647 l -2.865,0.004 z"
         id="path23147" />
      <path
         style="opacity:1;fill:#000000;fill-opacity:1;stroke:none;stroke-width:1px;stroke-opacity:1"
         d="m 108.686,156.018 c 0,1.463 -1.282,2.65 -2.864,2.651 -1.583,0 -2.866,-1.185 -2.867,-2.649 -0.002,-1.464 1.28,-2.651 2.862,-2.653 1.582,-0.002 2.867,1.183 2.869,2.647 l -2.866,0.004 z"
         id="path23149" />
      <path
         style="opacity:1;fill:#000000;fill-opacity:1;stroke:none;stroke-width:1px;stroke-opacity:1"
         d="m 108.891,156.222 c 0,1.464 -1.283,2.651 -2.865,2.651 -1.582,0.001 -2.866,-1.185 -2.867,-2.648 -0.001,-1.464 1.28,-2.652 2.863,-2.653 1.582,-0.002 2.866,1.183 2.869,2.646 l -2.866,0.004 z"
         id="path23151" />
      <path
         style="opacity:1;fill:#000000;fill-opacity:1;stroke:none;stroke-width:1px;stroke-opacity:1"
         d="m 109.099,156.431 c 0,1.463 -1.282,2.65 -2.865,2.65 -1.582,0.001 -2.866,-1.185 -2.867,-2.648 -0.001,-1.464 1.28,-2.651 2.863,-2.653 1.582,-0.002 2.866,1.183 2.869,2.646 l -2.866,0.004 z"
         id="path23153" />
      <path
         style="opacity:1;fill:#000000;fill-opacity:1;stroke:none;stroke-width:1px;stroke-opacity:1"
         d="m 109.311,156.642 c 0,1.464 -1.283,2.65 -2.865,2.651 -1.582,0.001 -2.866,-1.185 -2.867,-2.649 -10e-4,-1.463 1.28,-2.651 2.862,-2.652 1.583,-0.002 2.867,1.183 2.87,2.646 l -2.866,0.004 z"
         id="path23155" />
      <path
         style="opacity:1;fill:#000000;fill-opacity:1;stroke:none;stroke-width:1px;stroke-opacity:1"
         d="m 109.526,156.858 c 0,1.463 -1.282,2.65 -2.865,2.65 -1.582,10e-4 -2.865,-1.185 -2.867,-2.648 -10e-4,-1.464 1.281,-2.651 2.863,-2.653 1.582,-0.002 2.867,1.183 2.869,2.647 l -2.866,0.004 z"
         id="path23157" />
      <path
         style="opacity:1;fill:#000000;fill-opacity:1;stroke:none;stroke-width:1px;stroke-opacity:1"
         d="m 109.745,157.077 c 0,1.463 -1.282,2.65 -2.864,2.651 -1.583,0 -2.866,-1.185 -2.867,-2.649 -0.002,-1.463 1.28,-2.651 2.862,-2.653 1.582,-0.002 2.867,1.183 2.869,2.647 l -2.865,0.004 z"
         id="path23159" />
      <path
         style="opacity:1;fill:#000000;fill-opacity:1;stroke:none;stroke-width:1px;stroke-opacity:1"
         d="m 109.968,157.3 c 0,1.463 -1.282,2.65 -2.864,2.651 -1.583,0 -2.866,-1.185 -2.867,-2.649 -0.002,-1.463 1.28,-2.651 2.862,-2.653 1.582,-0.002 2.867,1.183 2.869,2.647 l -2.866,0.004 z"
         id="path23161" />
      <path
         style="opacity:1;fill:#000000;fill-opacity:1;stroke:none;stroke-width:1px;stroke-opacity:1"
         d="m 110.195,157.527 c 0,1.463 -1.282,2.65 -2.865,2.65 -1.582,0.001 -2.865,-1.185 -2.867,-2.648 -10e-4,-1.464 1.281,-2.651 2.863,-2.653 1.582,-0.002 2.867,1.183 2.869,2.647 l -2.866,0.004 z"
         id="path23163" />
      <path
         style="opacity:1;fill:#000000;fill-opacity:1;stroke:none;stroke-width:1px;stroke-opacity:1"
         d="m 110.426,157.757 c 0,1.464 -1.283,2.651 -2.865,2.651 -1.582,0.001 -2.866,-1.185 -2.867,-2.648 -0.001,-1.464 1.28,-2.652 2.863,-2.653 1.582,-0.002 2.866,1.183 2.869,2.646 l -2.866,0.004 z"
         id="path23165" />
      <path
         style="opacity:1;fill:#000000;fill-opacity:1;stroke:none;stroke-width:1px;stroke-opacity:1"
         d="m 110.66,157.992 c 0,1.464 -1.282,2.65 -2.864,2.651 -1.583,0 -2.866,-1.185 -2.867,-2.649 -0.001,-1.463 1.28,-2.651 2.862,-2.653 1.583,-0.001 2.867,1.183 2.869,2.647 l -2.865,0.004 z"
         id="path23167" />
      <path
         style="opacity:1;fill:#000000;fill-opacity:1;stroke:none;stroke-width:1px;stroke-opacity:1"
         d="m 110.899,158.231 c 0,1.463 -1.282,2.65 -2.865,2.65 -1.582,0.001 -2.865,-1.185 -2.867,-2.648 -0.001,-1.464 1.28,-2.651 2.863,-2.653 1.582,-0.002 2.867,1.183 2.869,2.646 l -2.866,0.004 z"
         id="path23169" />
      <path
         style="opacity:1;fill:#000000;fill-opacity:1;stroke:none;stroke-width:1px;stroke-opacity:1"
         d="m 111.142,158.473 c 0,1.464 -1.283,2.65 -2.865,2.651 -1.582,0.001 -2.866,-1.185 -2.867,-2.649 -10e-4,-1.463 1.28,-2.651 2.862,-2.652 1.583,-0.002 2.867,1.182 2.87,2.646 l -2.866,0.004 z"
         id="path23171" />
      <path
         style="opacity:1;fill:#000000;fill-opacity:1;stroke:none;stroke-width:1px;stroke-opacity:1"
         d="m 111.388,158.72 c 0,1.463 -1.282,2.65 -2.864,2.651 -1.583,0 -2.866,-1.185 -2.867,-2.649 -0.002,-1.464 1.28,-2.651 2.862,-2.653 1.582,-0.002 2.867,1.183 2.869,2.647 l -2.866,0.004 z"
         id="path23173" />
      <path
         style="opacity:1;fill:#000000;fill-opacity:1;stroke:none;stroke-width:1px;stroke-opacity:1"
         d="m 111.639,158.971 c 0,1.463 -1.282,2.65 -2.865,2.65 -1.582,0.001 -2.865,-1.185 -2.867,-2.648 -10e-4,-1.464 1.28,-2.651 2.863,-2.653 1.582,-0.002 2.867,1.183 2.869,2.646 l -2.866,0.004 z"
         id="path23175" />
      <path
         style="opacity:1;fill:#000000;fill-opacity:1;stroke:none;stroke-width:1px;stroke-opacity:1"
         d="m 111.894,159.226 c 0,1.463 -1.282,2.65 -2.865,2.65 -1.582,0.001 -2.865,-1.185 -2.867,-2.648 -0.001,-1.464 1.28,-2.651 2.863,-2.653 1.582,-0.002 2.866,1.183 2.869,2.646 l -2.866,0.004 z"
         id="path23177" />
      <path
         style="opacity:1;fill:#000000;fill-opacity:1;stroke:none;stroke-width:1px;stroke-opacity:1"
         d="m 112.153,159.485 c 0,1.463 -1.282,2.65 -2.865,2.65 -1.582,0.001 -2.865,-1.185 -2.867,-2.648 -0.001,-1.464 1.28,-2.651 2.863,-2.653 1.582,-0.002 2.867,1.183 2.869,2.646 l -2.866,0.004 z"
         id="path23179" />
      <path
         style="opacity:1;fill:#000000;fill-opacity:1;stroke:none;stroke-width:1px;stroke-opacity:1"
         d="m 112.416,159.748 c 0,1.464 -1.282,2.65 -2.864,2.651 -1.583,0 -2.866,-1.185 -2.867,-2.649 -0.002,-1.463 1.28,-2.651 2.862,-2.653 1.582,-0.002 2.867,1.183 2.869,2.647 l -2.865,0.004 z"
         id="path23181" />
      <path
         style="opacity:1;fill:#000000;fill-opacity:1;stroke:none;stroke-width:1px;stroke-opacity:1"
         d="m 112.684,160.016 c 0,1.463 -1.282,2.65 -2.865,2.65 -1.582,0.001 -2.865,-1.185 -2.867,-2.648 -0.001,-1.464 1.28,-2.651 2.863,-2.653 1.582,-0.002 2.866,1.183 2.869,2.646 l -2.866,0.004 z"
         id="path23183" />
      <path
         style="opacity:1;fill:#000000;fill-opacity:1;stroke:none;stroke-width:1px;stroke-opacity:1"
         d="m 112.956,160.288 c 0,1.463 -1.282,2.65 -2.865,2.65 -1.582,0.001 -2.865,-1.185 -2.867,-2.648 -0.001,-1.464 1.28,-2.651 2.863,-2.653 1.582,-0.002 2.866,1.183 2.869,2.646 l -2.866,0.004 z"
         id="path23185" />
      <path
         style="opacity:1;fill:#000000;fill-opacity:1;stroke:none;stroke-width:1px;stroke-opacity:1"
         d="m 113.232,160.564 c 0,1.463 -1.282,2.65 -2.864,2.651 -1.583,0 -2.866,-1.185 -2.867,-2.649 -0.002,-1.464 1.28,-2.651 2.862,-2.653 1.582,-0.002 2.867,1.183 2.869,2.647 l -2.866,0.004 z"
         id="path23187" />
      <path
         style="opacity:1;fill:#000000;fill-opacity:1;stroke:none;stroke-width:1px;stroke-opacity:1"
         d="m 113.513,160.845 c 0,1.463 -1.282,2.65 -2.865,2.65 -1.582,0.001 -2.865,-1.185 -2.867,-2.648 -0.001,-1.464 1.28,-2.651 2.863,-2.653 1.582,-0.002 2.866,1.183 2.869,2.646 l -2.866,0.004 z"
         id="path23189" />
      <path
         style="opacity:1;fill:#000000;fill-opacity:1;stroke:none;stroke-width:1px;stroke-opacity:1"
         d="m 113.798,161.13 c 0,1.463 -1.282,2.65 -2.864,2.651 -1.583,0 -2.866,-1.185 -2.867,-2.649 -0.002,-1.464 1.28,-2.651 2.862,-2.653 1.582,-0.002 2.867,1.183 2.869,2.647 l -2.866,0.004 z"
         id="path23191" />
      <path
         style="opacity:1;fill:#000000;fill-opacity:1;stroke:none;stroke-width:1px;stroke-opacity:1"
         d="m 114.088,161.42 c 0,1.463 -1.282,2.65 -2.865,2.65 -1.582,0.001 -2.865,-1.185 -2.867,-2.648 -10e-4,-1.464 1.28,-2.651 2.863,-2.653 1.582,-0.002 2.866,1.183 2.869,2.646 l -2.866,0.004 z"
         id="path23193" />
      <path
         style="opacity:1;fill:#000000;fill-opacity:1;stroke:none;stroke-width:1px;stroke-opacity:1"
         d="m 114.382,161.714 c 0,1.463 -1.282,2.65 -2.864,2.651 -1.583,0 -2.866,-1.185 -2.867,-2.649 -0.002,-1.464 1.28,-2.651 2.862,-2.653 1.582,-0.002 2.867,1.183 2.869,2.647 l -2.866,0.004 z"
         id="path23195" />
      <path
         style="opacity:1;fill:#000000;fill-opacity:1;stroke:none;stroke-width:1px;stroke-opacity:1"
         d="m 114.681,162.013 c 0,1.463 -1.282,2.65 -2.864,2.651 -1.583,0 -2.866,-1.185 -2.867,-2.649 -0.002,-1.464 1.28,-2.651 2.862,-2.653 1.582,-0.002 2.867,1.183 2.869,2.647 l -2.866,0.004 z"
         id="path23197" />
    </g>
    <path
       style="fill:#fafafa;fill-opacity:1"
       id="path1336"
       sodipodi:type="arc"
       sodipodi:cx="96.885841"
       sodipodi:cy="147.26048"
       sodipodi:rx="2.4401639"
       sodipodi:ry="2.3578579"
       sodipodi:start="0"
       sodipodi:end="6.2753583"
       sodipodi:arc-type="arc"
       d="m 99.326005,147.26048 a 2.4401639,2.3578579 0 0 1 -2.435389,2.35786 2.4401639,2.3578579 0 0 1 -2.44492,-2.34863 2.4401639,2.3578579 0 0 1 2.425821,-2.36704 2.4401639,2.3578579 0 0 1 2.454413,2.33936"
       sodipodi:open="true" />
    <path
       d="m 98.075339,147.89558 c 0.02117,-0.17463 0.03704,-0.34925 0.03704,-0.52917 0,-0.17991 -0.01587,-0.35454 -0.03704,-0.52916 h 0.894292 c 0.04233,0.16933 0.06879,0.3466 0.06879,0.52916 0,0.18256 -0.02646,0.35984 -0.06879,0.52917 m -1.362604,1.47108 c 0.15875,-0.29369 0.280458,-0.61119 0.365125,-0.94191 h 0.78052 c -0.254,0.43656 -0.658812,0.77522 -1.145645,0.94191 m -0.06615,-1.47108 h -1.23825 c -0.02646,-0.17463 -0.04233,-0.34925 -0.04233,-0.52917 0,-0.17991 0.01588,-0.35719 0.04233,-0.52916 h 1.23825 c 0.02381,0.17197 0.04233,0.34925 0.04233,0.52916 0,0.17992 -0.01852,0.35454 -0.04233,0.52917 m -0.619124,1.57692 c -0.219604,-0.3175 -0.396875,-0.6694 -0.505354,-1.04775 h 1.010708 c -0.108479,0.37835 -0.28575,0.73025 -0.505354,1.04775 m -1.058334,-3.16442 h -0.772583 c 0.251354,-0.43921 0.658813,-0.77788 1.143,-0.94192 -0.15875,0.29369 -0.277812,0.61119 -0.370417,0.94192 m -0.772583,2.11667 h 0.772583 c 0.09261,0.33072 0.211667,0.64822 0.370417,0.94191 -0.484187,-0.16669 -0.891646,-0.50535 -1.143,-0.94191 m -0.216958,-0.52917 c -0.04233,-0.16933 -0.06879,-0.34661 -0.06879,-0.52917 0,-0.18256 0.02646,-0.35983 0.06879,-0.52916 h 0.894291 c -0.02117,0.17462 -0.03704,0.34925 -0.03704,0.52916 0,0.17992 0.01587,0.35454 0.03704,0.52917 m 1.153583,-2.6379 c 0.219604,0.3175 0.396875,0.67204 0.505354,1.0504 h -1.010708 c 0.108479,-0.37836 0.28575,-0.7329 0.505354,-1.0504 m 1.830916,1.0504 h -0.78052 c -0.08467,-0.33073 -0.206375,-0.64823 -0.365125,-0.94192 0.486833,0.16669 0.891645,0.50271 1.145645,0.94192 m -1.830916,-1.5875 c -1.463146,0 -2.645834,1.19062 -2.645834,2.64583 a 2.6458333,2.6458333 0 0 0 2.645834,2.64584 2.6458333,2.6458333 0 0 0 2.645833,-2.64584 2.6458333,2.6458333 0 0 0 -2.645833,-2.64583 z"
       id="path864"
       style="fill:#7cb342;fill-opacity:1;stroke-width:0.264583"
       inkscape:export-filename="/home/juergen/Android/Apps/path864.png"
       inkscape:export-xdpi="1199.9963"
       inkscape:export-ydpi="1199.9963" />
  </g>
</svg>
